<svg version="1.1" xmlns="http://www.w3.org/2000/svg" xmlns:xlink="http://www.w3.org/1999/xlink" width="863" height="652" viewBox="0,0,863,652"><g fill="none" fill-rule="nonzero" stroke="none" stroke-width="1" stroke-linecap="butt" stroke-linejoin="miter" stroke-miterlimit="10" stroke-dasharray="" stroke-dashoffset="0" font-family="sans-serif" font-weight="normal" font-size="12" text-anchor="start" style="mix-blend-mode: normal"/><g fill="none" fill-rule="nonzero" stroke="none" stroke-width="1" stroke-linecap="butt" stroke-linejoin="miter" stroke-miterlimit="10" stroke-dasharray="" stroke-dashoffset="0" font-family="none" font-weight="none" font-size="none" text-anchor="none" style="mix-blend-mode: normal"><path d="M652.6054,161.13487c0,-12.15026 9.84974,-22 22,-22c12.15026,0 22,9.84974 22,22c0,12.15026 -9.84974,22 -22,22c-12.15026,0 -22,-9.84974 -22,-22z" stroke="#761199"/><path d="M646.46067,163.10458c0,-13.36529 10.83471,-24.2 24.2,-24.2c13.36529,0 24.2,10.83471 24.2,24.2c0,13.36529 -10.83471,24.2 -24.2,24.2c-13.36529,0 -24.2,-10.83471 -24.2,-24.2z" stroke="#761199"/><path d="M637.86085,166.25658c0,-14.70182 11.91818,-26.62 26.62,-26.62c14.70182,0 26.62,11.91818 26.62,26.62c0,14.70182 -11.91818,26.62 -26.62,26.62c-14.70182,0 -26.62,-11.91818 -26.62,-26.62z" stroke="#761199"/><path d="M627.02495,170.48378c0,-16.172 13.11,-29.282 29.282,-29.282c16.172,0 29.282,13.11 29.282,29.282c0,16.172 -13.11,29.282 -29.282,29.282c-16.172,0 -29.282,-13.11 -29.282,-29.282z" stroke="#761199"/><path d="M614.33887,175.57886c0,-17.7892 14.421,-32.2102 32.2102,-32.2102c17.7892,0 32.2102,14.421 32.2102,32.2102c0,17.7892 -14.421,32.2102 -32.2102,32.2102c-17.7892,0 -32.2102,-14.421 -32.2102,-32.2102z" stroke="#761199"/><path d="M600.20607,181.31763c0,-19.56812 15.8631,-35.43122 35.43122,-35.43122c19.56812,0 35.43122,15.8631 35.43122,35.43122c0,19.56812 -15.8631,35.43122 -35.43122,35.43122c-19.56812,0 -35.43122,-15.8631 -35.43122,-35.43122z" stroke="#761199"/><path d="M584.98224,187.49605c0,-21.52493 17.44941,-38.97434 38.97434,-38.97434c21.52493,0 38.97434,17.44941 38.97434,38.97434c0,21.52493 -17.44941,38.97434 -38.97434,38.97434c-21.52493,0 -38.97434,-17.44941 -38.97434,-38.97434z" stroke="#761199"/><path d="M568.95243,193.94778c0,-23.67743 19.19435,-42.87178 42.87178,-42.87178c23.67743,0 42.87178,19.19435 42.87178,42.87178c0,23.67743 -19.19435,42.87178 -42.87178,42.87178c-23.67743,0 -42.87178,-19.19435 -42.87178,-42.87178z" stroke="#761199"/><path d="M552.3455,200.54373c0,-26.04517 21.11378,-47.15895 47.15895,-47.15895c26.04517,0 47.15895,21.11378 47.15895,47.15895c0,26.04517 -21.11378,47.15895 -47.15895,47.15895c-26.04517,0 -47.15895,-21.11378 -47.15895,-47.15895z" stroke="#761199"/><path d="M544.79882,207.13043c0,-23.44065 19.0024,-42.44306 42.44306,-42.44306c23.44065,0 42.44306,19.0024 42.44306,42.44306c0,23.44065 -19.0024,42.44306 -42.44306,42.44306c-23.44065,0 -42.44306,-19.0024 -42.44306,-42.44306z" stroke="#761199"/><path d="M536.85811,213.60433c0,-21.09659 17.10216,-38.19875 38.19875,-38.19875c21.09659,0 38.19875,17.10216 38.19875,38.19875c0,21.09659 -17.10216,38.19875 -38.19875,38.19875c-21.09659,0 -38.19875,-17.10216 -38.19875,-38.19875z" stroke="#761199"/><path d="M528.75639,219.99809c0,-18.98693 15.39195,-34.37888 34.37888,-34.37888c18.98693,0 34.37888,15.39195 34.37888,34.37888c0,18.98693 -15.39195,34.37888 -34.37888,34.37888c-18.98693,0 -34.37888,-15.39195 -34.37888,-34.37888z" stroke="#761199"/><path d="M520.64965,226.19718c0,-17.08824 13.85275,-30.94099 30.94099,-30.94099c17.08824,0 30.94099,13.85275 30.94099,30.94099c0,17.08824 -13.85275,30.94099 -30.94099,30.94099c-17.08824,0 -30.94099,-13.85275 -30.94099,-30.94099z" stroke="#761199"/><path d="M512.57974,232.18477c0,-15.37941 12.46748,-27.84689 27.84689,-27.84689c15.37941,0 27.84689,12.46748 27.84689,27.84689c0,15.37941 -12.46748,27.84689 -27.84689,27.84689c-15.37941,0 -27.84689,-12.46748 -27.84689,-27.84689z" stroke="#761199"/><path d="M504.63747,237.9449c0,-13.84147 11.22073,-25.0622 25.0622,-25.0622c13.84147,0 25.0622,11.22073 25.0622,25.0622c0,13.84147 -11.22073,25.0622 -25.0622,25.0622c-13.84147,0 -25.0622,-11.22073 -25.0622,-25.0622z" stroke="#761199"/><path d="M496.86974,243.45735c0,-12.45732 10.09866,-22.55598 22.55598,-22.55598c12.45732,0 22.55598,10.09866 22.55598,22.55598c0,12.45732 -10.09866,22.55598 -22.55598,22.55598c-12.45732,0 -22.55598,-10.09866 -22.55598,-22.55598z" stroke="#761199"/><path d="M489.31433,248.71424c0,-11.21159 9.08879,-20.30038 20.30038,-20.30038c11.21159,0 20.30038,9.08879 20.30038,20.30038c0,11.21159 -9.08879,20.30038 -20.30038,20.30038c-11.21159,0 -20.30038,-9.08879 -20.30038,-20.30038z" stroke="#761199"/><path d="M482.00183,253.72578c0,-10.09043 8.17991,-18.27034 18.27034,-18.27034c10.09043,0 18.27034,8.17991 18.27034,18.27034c0,10.09043 -8.17991,18.27034 -18.27034,18.27034c-10.09043,0 -18.27034,-8.17991 -18.27034,-18.27034z" stroke="#761199"/><path d="M474.93759,258.453c0,-9.08139 7.36192,-16.44331 16.44331,-16.44331c9.08139,0 16.44331,7.36192 16.44331,16.44331c0,9.08139 -7.36192,16.44331 -16.44331,16.44331c-9.08139,0 -16.44331,-7.36192 -16.44331,-16.44331z" stroke="#761199"/><path d="M468.14446,262.9391c0,-8.17325 6.62573,-14.79898 14.79898,-14.79898c8.17325,0 14.79898,6.62573 14.79898,14.79898c0,8.17325 -6.62573,14.79898 -14.79898,14.79898c-8.17325,0 -14.79898,-6.62573 -14.79898,-14.79898z" stroke="#761199"/><path d="M461.62351,267.1764c0,-7.35593 5.96316,-13.31908 13.31908,-13.31908c7.35593,0 13.31908,5.96316 13.31908,13.31908c0,7.35593 -5.96316,13.31908 -13.31908,13.31908c-7.35593,0 -13.31908,-5.96316 -13.31908,-13.31908z" stroke="#761199"/><path d="M455.37565,271.17194c0,-6.62033 5.36684,-11.98717 11.98717,-11.98717c6.62033,0 11.98717,5.36684 11.98717,11.98717c0,6.62033 -5.36684,11.98717 -11.98717,11.98717c-6.62033,0 -11.98717,-5.36684 -11.98717,-11.98717z" stroke="#761199"/><path d="M449.39589,274.9291c0,-5.9583 4.83016,-10.78846 10.78846,-10.78846c5.9583,0 10.78846,4.83016 10.78846,10.78846c0,5.9583 -4.83016,10.78846 -10.78846,10.78846c-5.9583,0 -10.78846,-4.83016 -10.78846,-10.78846z" stroke="#761199"/><path d="M443.68742,278.47063c0,-5.36247 4.34714,-9.70961 9.70961,-9.70961c5.36247,0 9.70961,4.34714 9.70961,9.70961c0,5.36247 -4.34714,9.70961 -9.70961,9.70961c-5.36247,0 -9.70961,-4.34714 -9.70961,-9.70961z" stroke="#761199"/><path d="M438.23714,281.79129c0,-4.82622 3.91243,-8.73865 8.73865,-8.73865c4.82622,0 8.73865,3.91243 8.73865,8.73865c0,4.82622 -3.91243,8.73865 -8.73865,8.73865c-4.82622,0 -8.73865,-3.91243 -8.73865,-8.73865z" stroke="#761199"/><path d="M433.03542,284.90569c0,-4.3436 3.52118,-7.86478 7.86478,-7.86478c4.3436,0 7.86478,3.52118 7.86478,7.86478c0,4.3436 -3.52118,7.86478 -7.86478,7.86478c-4.3436,0 -7.86478,-3.52118 -7.86478,-7.86478z" stroke="#761199"/><path d="M428.07592,287.82289c0,-3.90924 3.16907,-7.07831 7.07831,-7.07831c3.90924,0 7.07831,3.16907 7.07831,7.07831c0,3.90924 -3.16907,7.07831 -7.07831,7.07831c-3.90924,0 -7.07831,-3.16907 -7.07831,-7.07831z" stroke="#761199"/><path d="M423.34915,290.55218c0,-3.51832 2.85216,-6.37048 6.37048,-6.37048c3.51832,0 6.37048,2.85216 6.37048,6.37048c0,3.51832 -2.85216,6.37048 -6.37048,6.37048c-3.51832,0 -6.37048,-2.85216 -6.37048,-6.37048z" stroke="#761199"/><path d="M418.85074,293.10394c0,-3.16648 2.56694,-5.73343 5.73343,-5.73343c3.16648,0 5.73343,2.56694 5.73343,5.73343c0,3.16648 -2.56694,5.73343 -5.73343,5.73343c-3.16648,0 -5.73343,-2.56694 -5.73343,-5.73343z" stroke="#761199"/><path d="M414.56221,295.48495c0,-2.84984 2.31025,-5.16009 5.16009,-5.16009c2.84984,0 5.16009,2.31025 5.16009,5.16009c0,2.84984 -2.31025,5.16009 -5.16009,5.16009c-2.84984,0 -5.16009,-2.31025 -5.16009,-5.16009z" stroke="#761199"/><path d="M410.47684,297.70479c0,-2.56485 2.07922,-4.64408 4.64408,-4.64408c2.56485,0 4.64408,2.07922 4.64408,4.64408c0,2.56485 -2.07922,4.64408 -4.64408,4.64408c-2.56485,0 -4.64408,-2.07922 -4.64408,-4.64408z" stroke="#761199"/><path d="M406.58473,299.77177c0,-2.30837 1.8713,-4.17967 4.17967,-4.17967c2.30837,0 4.17967,1.8713 4.17967,4.17967c0,2.30837 -1.8713,4.17967 -4.17967,4.17967c-2.30837,0 -4.17967,-1.8713 -4.17967,-4.17967z" stroke="#761199"/><path d="M402.87617,301.69393c0,-2.07753 1.68417,-3.7617 3.7617,-3.7617c2.07753,0 3.7617,1.68417 3.7617,3.7617c0,2.07753 -1.68417,3.7617 -3.7617,3.7617c-2.07753,0 -3.7617,-1.68417 -3.7617,-3.7617z" stroke="#761199"/><path d="M399.34172,303.47895c0,-1.86978 1.51575,-3.38553 3.38553,-3.38553c1.86978,0 3.38553,1.51575 3.38553,3.38553c0,1.86978 -1.51575,3.38553 -3.38553,3.38553c-1.86978,0 -3.38553,-1.51575 -3.38553,-3.38553z" stroke="#761199"/><path d="M395.97225,305.1342c0,-1.6828 1.36418,-3.04698 3.04698,-3.04698c1.6828,0 3.04698,1.36418 3.04698,3.04698c0,1.6828 -1.36418,3.04698 -3.04698,3.04698c-1.6828,0 -3.04698,-1.36418 -3.04698,-3.04698z" stroke="#761199"/><path d="M392.75899,306.66671c0,-1.51452 1.22776,-2.74228 2.74228,-2.74228c1.51452,0 2.74228,1.22776 2.74228,2.74228c0,1.51452 -1.22776,2.74228 -2.74228,2.74228c-1.51452,0 -2.74228,-1.22776 -2.74228,-2.74228z" stroke="#761199"/><path d="M389.69351,308.08319c0,-1.36307 1.10498,-2.46805 2.46805,-2.46805c1.36307,0 2.46805,1.10498 2.46805,2.46805c0,1.36307 -1.10498,2.46805 -2.46805,2.46805c-1.36307,0 -2.46805,-1.10498 -2.46805,-2.46805z" stroke="#761199"/><path d="M386.76781,309.39004c0,-1.22676 0.99449,-2.22125 2.22125,-2.22125c1.22676,0 2.22125,0.99449 2.22125,2.22125c0,1.22676 -0.99449,2.22125 -2.22125,2.22125c-1.22676,0 -2.22125,-0.99449 -2.22125,-2.22125z" stroke="#761199"/><path d="M383.52997,310.59336c0,-1.34944 1.09393,-2.44337 2.44337,-2.44337c1.34944,0 2.44337,1.09393 2.44337,2.44337c0,1.34944 -1.09393,2.44337 -2.44337,2.44337c-1.34944,0 -2.44337,-1.09393 -2.44337,-2.44337z" stroke="#761199"/><path d="M379.61069,311.69894c0,-1.9297 1.56433,-3.49402 3.49402,-3.49402c1.9297,0 3.49402,1.56433 3.49402,3.49402c0,1.9297 -1.56433,3.49402 -3.49402,3.49402c-1.9297,0 -3.49402,-1.56433 -3.49402,-3.49402z" stroke="#31f9bc"/><path d="M377.19767,312.71228c0,-1.75427 1.42212,-3.17638 3.17638,-3.17638c1.75427,0 3.17638,1.42212 3.17638,3.17638c0,1.75427 -1.42212,3.17638 -3.17638,3.17638c-1.75427,0 -3.17638,-1.42212 -3.17638,-3.17638z" stroke="#31f9bc"/><path d="M373.92946,313.63861c0,-2.12266 1.72076,-3.84342 3.84342,-3.84342c2.12266,0 3.84342,1.72076 3.84342,3.84342c0,2.12266 -1.72076,3.84342 -3.84342,3.84342c-2.12266,0 -3.84342,-1.72076 -3.84342,-3.84342z" stroke="#31f9bc"/><path d="M371.06548,314.48292c0,-2.33493 1.89284,-4.22777 4.22777,-4.22777c2.33493,0 4.22777,1.89284 4.22777,4.22777c0,2.33493 -1.89284,4.22777 -4.22777,4.22777c-2.33493,0 -4.22777,-1.89284 -4.22777,-4.22777z" stroke="#31f9bc"/><path d="M368.27719,315.24992c0,-2.56842 2.08212,-4.65054 4.65054,-4.65054c2.56842,0 4.65054,2.08212 4.65054,4.65054c0,2.56842 -2.08212,4.65054 -4.65054,4.65054c-2.56842,0 -4.65054,-2.08212 -4.65054,-4.65054z" stroke="#31f9bc"/><path d="M365.55385,315.94408c0,-2.82527 2.29033,-5.1156 5.1156,-5.1156c2.82527,0 5.1156,2.29033 5.1156,5.1156c0,2.82527 -2.29033,5.1156 -5.1156,5.1156c-2.82527,0 -5.1156,-2.29033 -5.1156,-5.1156z" stroke="#31f9bc"/><path d="M362.88477,316.56965c0,-3.10779 2.51936,-5.62716 5.62716,-5.62716c3.10779,0 5.62716,2.51936 5.62716,5.62716c0,3.10779 -2.51936,5.62716 -5.62716,5.62716c-3.10779,0 -5.62716,-2.51936 -5.62716,-5.62716z" stroke="#31f9bc"/><path d="M360.25931,317.13067c0,-3.41857 2.7713,-6.18987 6.18987,-6.18987c3.41857,0 6.18987,2.7713 6.18987,6.18987c0,3.41857 -2.7713,6.18987 -6.18987,6.18987c-3.41857,0 -6.18987,-2.7713 -6.18987,-6.18987z" stroke="#31f9bc"/><path d="M357.66673,317.63095c0,-3.76043 3.04843,-6.80886 6.80886,-6.80886c3.76043,0 6.80886,3.04843 6.80886,6.80886c0,3.76043 -3.04843,6.80886 -6.80886,6.80886c-3.76043,0 -6.80886,-3.04843 -6.80886,-6.80886z" stroke="#31f9bc"/><path d="M355.09622,318.07411c0,-4.13647 3.35327,-7.48975 7.48975,-7.48975c4.13647,0 7.48975,3.35327 7.48975,7.48975c0,4.13647 -3.35327,7.48975 -7.48975,7.48975c-4.13647,0 -7.48975,-3.35327 -7.48975,-7.48975z" stroke="#31f9bc"/><path d="M352.5367,318.46358c0,-4.55012 3.6886,-8.23872 8.23872,-8.23872c4.55012,0 8.23872,3.6886 8.23872,8.23872c0,4.55012 -3.6886,8.23872 -8.23872,8.23872c-4.55012,0 -8.23872,-3.6886 -8.23872,-8.23872z" stroke="#31f9bc"/><path d="M349.97688,318.80261c0,-5.00513 4.05746,-9.06259 9.06259,-9.06259c5.00513,0 9.06259,4.05746 9.06259,9.06259c0,5.00513 -4.05746,9.06259 -9.06259,9.06259c-5.00513,0 -9.06259,-4.05746 -9.06259,-9.06259z" stroke="#31f9bc"/><path d="M347.40491,319.09426c0,-5.50565 4.46321,-9.96885 9.96885,-9.96885c5.50565,0 9.96885,4.46321 9.96885,9.96885c0,5.50565 -4.46321,9.96885 -9.96885,9.96885c-5.50565,0 -9.96885,-4.46321 -9.96885,-9.96885z" stroke="#31f9bc"/><path d="M344.80852,319.34153c0,-6.05621 4.90953,-10.96574 10.96574,-10.96574c6.05621,0 10.96574,4.90953 10.96574,10.96574c0,6.05621 -4.90953,10.96574 -10.96574,10.96574c-6.05621,0 -10.96574,-4.90953 -10.96574,-10.96574z" stroke="#31f9bc"/><path d="M342.1765,319.54771c0,-6.66183 5.40048,-12.06231 12.06231,-12.06231c6.66183,0 12.06231,5.40048 12.06231,12.06231c0,6.66183 -5.40048,12.06231 -12.06231,12.06231c-6.66183,0 -12.06231,-5.40048 -12.06231,-12.06231z" stroke="#31f9bc"/><path d="M339.49128,319.71482c0,-7.32801 5.94053,-13.26854 13.26854,-13.26854c7.32801,0 13.26854,5.94053 13.26854,13.26854c0,7.32801 -5.94053,13.26854 -13.26854,13.26854c-7.32801,0 -13.26854,-5.94053 -13.26854,-13.26854z" stroke="#31f9bc"/><path d="M336.73322,319.83903c0,-8.06082 6.53458,-14.5954 14.5954,-14.5954c8.06082,0 14.5954,6.53458 14.5954,14.5954c0,8.06082 -6.53458,14.5954 -14.5954,14.5954c-8.06082,0 -14.5954,-6.53458 -14.5954,-14.5954z" stroke="#31f9bc"/><path d="M333.88311,319.90575c0,-8.8669 7.18804,-16.05494 16.05494,-16.05494c8.8669,0 16.05494,7.18804 16.05494,16.05494c0,8.8669 -7.18804,16.05494 -16.05494,16.05494c-8.8669,0 -16.05494,-7.18804 -16.05494,-16.05494z" stroke="#31f9bc"/><path d="M330.96691,319.92962c0,-9.75359 7.90684,-17.66043 17.66043,-17.66043c9.75359,0 17.66043,7.90684 17.66043,17.66043c0,9.75359 -7.90684,17.66043 -17.66043,17.66043c-9.75359,0 -17.66043,-7.90684 -17.66043,-17.66043z" stroke="#31f9bc"/><path d="M328.06771,320.01192c0,-10.72895 8.69753,-19.42647 19.42647,-19.42647c10.72895,0 19.42647,8.69753 19.42647,19.42647c0,10.72895 -8.69753,19.42647 -19.42647,19.42647c-10.72895,0 -19.42647,-8.69753 -19.42647,-19.42647z" stroke="#31f9bc"/><path d="M324.84498,320.36866c0,-11.80184 9.56728,-21.36912 21.36912,-21.36912c11.80184,0 21.36912,9.56728 21.36912,21.36912c0,11.80184 -9.56728,21.36912 -21.36912,21.36912c-11.80184,0 -21.36912,-9.56728 -21.36912,-21.36912z" stroke="#31f9bc"/><path d="M323.38815,321.07505c0,-11.80184 9.56728,-21.36912 21.36912,-21.36912c11.80184,0 21.36912,9.56728 21.36912,21.36912c0,11.80184 -9.56728,21.36912 -21.36912,21.36912c-11.80184,0 -21.36912,-9.56728 -21.36912,-21.36912z" stroke="#31f9bc"/></g></svg>