<svg version="1.1" xmlns="http://www.w3.org/2000/svg" xmlns:xlink="http://www.w3.org/1999/xlink" width="863" height="652" viewBox="0,0,863,652"><g fill="none" fill-rule="nonzero" stroke="none" stroke-width="1" stroke-linecap="butt" stroke-linejoin="miter" stroke-miterlimit="10" stroke-dasharray="" stroke-dashoffset="0" font-family="sans-serif" font-weight="normal" font-size="12" text-anchor="start" style="mix-blend-mode: normal"/><g fill="none" fill-rule="nonzero" stroke="none" stroke-width="1" stroke-linecap="butt" stroke-linejoin="miter" stroke-miterlimit="10" stroke-dasharray="" stroke-dashoffset="0" font-family="none" font-weight="none" font-size="none" text-anchor="none" style="mix-blend-mode: normal"><path d="M409.5,326c0,-12.15026 9.84974,-22 22,-22c12.15026,0 22,9.84974 22,22c0,12.15026 -9.84974,22 -22,22c-12.15026,0 -22,-9.84974 -22,-22z" stroke="#42efbf"/><path d="M407.3,326c0,-13.36529 10.83471,-24.2 24.2,-24.2c13.36529,0 24.2,10.83471 24.2,24.2c0,13.36529 -10.83471,24.2 -24.2,24.2c-13.36529,0 -24.2,-10.83471 -24.2,-24.2z" stroke="#42efbf"/><path d="M404.88,326c0,-14.70182 11.91818,-26.62 26.62,-26.62c14.70182,0 26.62,11.91818 26.62,26.62c0,14.70182 -11.91818,26.62 -26.62,26.62c-14.70182,0 -26.62,-11.91818 -26.62,-26.62z" stroke="#42efbf"/><path d="M402.218,326c0,-16.172 13.11,-29.282 29.282,-29.282c16.172,0 29.282,13.11 29.282,29.282c0,16.172 -13.11,29.282 -29.282,29.282c-16.172,0 -29.282,-13.11 -29.282,-29.282z" stroke="#42efbf"/><path d="M399.2898,326c0,-17.7892 14.421,-32.2102 32.2102,-32.2102c17.7892,0 32.2102,14.421 32.2102,32.2102c0,17.7892 -14.421,32.2102 -32.2102,32.2102c-17.7892,0 -32.2102,-14.421 -32.2102,-32.2102z" stroke="#42efbf"/><path d="M396.06878,326c0,-19.56812 15.8631,-35.43122 35.43122,-35.43122c19.56812,0 35.43122,15.8631 35.43122,35.43122c0,19.56812 -15.8631,35.43122 -35.43122,35.43122c-19.56812,0 -35.43122,-15.8631 -35.43122,-35.43122z" stroke="#42efbf"/><path d="M392.52566,326c0,-21.52493 17.44941,-38.97434 38.97434,-38.97434c21.52493,0 38.97434,17.44941 38.97434,38.97434c0,21.52493 -17.44941,38.97434 -38.97434,38.97434c-21.52493,0 -38.97434,-17.44941 -38.97434,-38.97434z" stroke="#42efbf"/><path d="M388.62822,326c0,-23.67743 19.19435,-42.87178 42.87178,-42.87178c23.67743,0 42.87178,19.19435 42.87178,42.87178c0,23.67743 -19.19435,42.87178 -42.87178,42.87178c-23.67743,0 -42.87178,-19.19435 -42.87178,-42.87178z" stroke="#42efbf"/><path d="M384.34105,326c0,-26.04517 21.11378,-47.15895 47.15895,-47.15895c26.04517,0 47.15895,21.11378 47.15895,47.15895c0,26.04517 -21.11378,47.15895 -47.15895,47.15895c-26.04517,0 -47.15895,-21.11378 -47.15895,-47.15895z" stroke="#42efbf"/><path d="M379.62515,326c0,-28.64969 23.22516,-51.87485 51.87485,-51.87485c28.64969,0 51.87485,23.22516 51.87485,51.87485c0,28.64969 -23.22516,51.87485 -51.87485,51.87485c-28.64969,0 -51.87485,-23.22516 -51.87485,-51.87485z" stroke="#42efbf"/><path d="M374.43767,326c0,-31.51466 25.54768,-57.06233 57.06233,-57.06233c31.51466,0 57.06233,25.54768 57.06233,57.06233c0,31.51466 -25.54768,57.06233 -57.06233,57.06233c-31.51466,0 -57.06233,-25.54768 -57.06233,-57.06233z" stroke="#42efbf"/><path d="M368.73143,326c0,-34.66612 28.10244,-62.76857 62.76857,-62.76857c34.66612,0 62.76857,28.10244 62.76857,62.76857c0,34.66612 -28.10244,62.76857 -62.76857,62.76857c-34.66612,0 -62.76857,-28.10244 -62.76857,-62.76857z" stroke="#42efbf"/><path d="M362.45458,326c0,-38.13273 30.91269,-69.04542 69.04542,-69.04542c38.13273,0 69.04542,30.91269 69.04542,69.04542c0,38.13273 -30.91269,69.04542 -69.04542,69.04542c-38.13273,0 -69.04542,-30.91269 -69.04542,-69.04542z" stroke="#42efbf"/><path d="M355.55003,326c0,-41.94601 34.00396,-75.94997 75.94997,-75.94997c41.94601,0 75.94997,34.00396 75.94997,75.94997c0,41.94601 -34.00396,75.94997 -75.94997,75.94997c-41.94601,0 -75.94997,-34.00396 -75.94997,-75.94997z" stroke="#42efbf"/><path d="M347.95504,326c0,-46.14061 37.40435,-83.54496 83.54496,-83.54496c46.14061,0 83.54496,37.40435 83.54496,83.54496c0,46.14061 -37.40435,83.54496 -83.54496,83.54496c-46.14061,0 -83.54496,-37.40435 -83.54496,-83.54496z" stroke="#42efbf"/><path d="M339.60054,326c0,-50.75467 41.14479,-91.89946 91.89946,-91.89946c50.75467,0 91.89946,41.14479 91.89946,91.89946c0,50.75467 -41.14479,91.89946 -91.89946,91.89946c-50.75467,0 -91.89946,-41.14479 -91.89946,-91.89946z" stroke="#42efbf"/><path d="M330.41059,326c0,-55.83014 45.25927,-101.08941 101.08941,-101.08941c55.83014,0 101.08941,45.25927 101.08941,101.08941c0,55.83014 -45.25927,101.08941 -101.08941,101.08941c-55.83014,0 -101.08941,-45.25927 -101.08941,-101.08941z" stroke="#42efbf"/><path d="M320.30165,326c0,-61.41315 49.7852,-111.19835 111.19835,-111.19835c61.41315,0 111.19835,49.7852 111.19835,111.19835c0,61.41315 -49.7852,111.19835 -111.19835,111.19835c-61.41315,0 -111.19835,-49.7852 -111.19835,-111.19835z" stroke="#42efbf"/><path d="M309.18182,326c0,-67.55447 54.76371,-122.31818 122.31818,-122.31818c67.55447,0 122.31818,54.76371 122.31818,122.31818c0,67.55447 -54.76371,122.31818 -122.31818,122.31818c-67.55447,0 -122.31818,-54.76371 -122.31818,-122.31818z" stroke="#42efbf"/><path d="M296.95,326c0,-74.30991 60.24009,-134.55 134.55,-134.55c74.30991,0 134.55,60.24009 134.55,134.55c0,74.30991 -60.24009,134.55 -134.55,134.55c-74.30991,0 -134.55,-60.24009 -134.55,-134.55z" stroke="#42efbf"/><path d="M283.495,326c0,-81.7409 66.2641,-148.005 148.005,-148.005c81.7409,0 148.005,66.2641 148.005,148.005c0,81.7409 -66.2641,148.005 -148.005,148.005c-81.7409,0 -148.005,-66.2641 -148.005,-148.005z" stroke="#42efbf"/><path d="M268.6945,326c0,-89.91499 72.8905,-162.8055 162.8055,-162.8055c89.91499,0 162.8055,72.8905 162.8055,162.8055c0,89.91499 -72.8905,162.8055 -162.8055,162.8055c-89.91499,0 -162.8055,-72.8905 -162.8055,-162.8055z" stroke="#42efbf"/><path d="M252.41395,326c0,-98.90649 80.17956,-179.08605 179.08605,-179.08605c98.90649,0 179.08605,80.17956 179.08605,179.08605c0,98.90649 -80.17956,179.08605 -179.08605,179.08605c-98.90649,0 -179.08605,-80.17956 -179.08605,-179.08605z" stroke="#42efbf"/><path d="M234.50535,326c0,-108.79714 88.19751,-196.99465 196.99465,-196.99465c108.79714,0 196.99465,88.19751 196.99465,196.99465c0,108.79714 -88.19751,196.99465 -196.99465,196.99465c-108.79714,0 -196.99465,-88.19751 -196.99465,-196.99465z" stroke="#42efbf"/><path d="M214.80588,326c0,-119.67686 97.01726,-216.69412 216.69412,-216.69412c119.67686,0 216.69412,97.01726 216.69412,216.69412c0,119.67686 -97.01726,216.69412 -216.69412,216.69412c-119.67686,0 -216.69412,-97.01726 -216.69412,-216.69412z" stroke="#42efbf"/><path d="M193.13647,326c0,-131.64454 106.71899,-238.36353 238.36353,-238.36353c131.64454,0 238.36353,106.71899 238.36353,238.36353c0,131.64454 -106.71899,238.36353 -238.36353,238.36353c-131.64454,0 -238.36353,-106.71899 -238.36353,-238.36353z" stroke="#42efbf"/><path d="M216.97282,326c0,-118.48009 96.04709,-214.52718 214.52718,-214.52718c118.48009,0 214.52718,96.04709 214.52718,214.52718c0,118.48009 -96.04709,214.52718 -214.52718,214.52718c-118.48009,0 -214.52718,-96.04709 -214.52718,-214.52718z" stroke="#42efbf"/><path d="M238.42554,326c0,-106.63208 86.44238,-193.07446 193.07446,-193.07446c106.63208,0 193.07446,86.44238 193.07446,193.07446c0,106.63208 -86.44238,193.07446 -193.07446,193.07446c-106.63208,0 -193.07446,-86.44238 -193.07446,-193.07446z" stroke="#42efbf"/><path d="M257.73299,326c0,-95.96887 77.79814,-173.76701 173.76701,-173.76701c95.96887,0 173.76701,77.79814 173.76701,173.76701c0,95.96887 -77.79814,173.76701 -173.76701,173.76701c-95.96887,0 -173.76701,-77.79814 -173.76701,-173.76701z" stroke="#42efbf"/><path d="M275.10969,326c0,-86.37198 70.01833,-156.39031 156.39031,-156.39031c86.37198,0 156.39031,70.01833 156.39031,156.39031c0,86.37198 -70.01833,156.39031 -156.39031,156.39031c-86.37198,0 -156.39031,-70.01833 -156.39031,-156.39031z" stroke="#42efbf"/><path d="M290.74872,326c0,-77.73479 63.0165,-140.75128 140.75128,-140.75128c77.73479,0 140.75128,63.0165 140.75128,140.75128c0,77.73479 -63.0165,140.75128 -140.75128,140.75128c-77.73479,0 -140.75128,-63.0165 -140.75128,-140.75128z" stroke="#42efbf"/><path d="M304.82385,326c0,-69.96131 56.71485,-126.67615 126.67615,-126.67615c69.96131,0 126.67615,56.71485 126.67615,126.67615c0,69.96131 -56.71485,126.67615 -126.67615,126.67615c-69.96131,0 -126.67615,-56.71485 -126.67615,-126.67615z" stroke="#42efbf"/><path d="M317.49146,326c0,-62.96518 51.04336,-114.00854 114.00854,-114.00854c62.96518,0 114.00854,51.04336 114.00854,114.00854c0,62.96518 -51.04336,114.00854 -114.00854,114.00854c-62.96518,0 -114.00854,-51.04336 -114.00854,-114.00854z" stroke="#42efbf"/><path d="M328.89232,326c0,-56.66866 45.93902,-102.60768 102.60768,-102.60768c56.66866,0 102.60768,45.93902 102.60768,102.60768c0,56.66866 -45.93902,102.60768 -102.60768,102.60768c-56.66866,0 -102.60768,-45.93902 -102.60768,-102.60768z" stroke="#42efbf"/><path d="M339.15308,326c0,-51.00179 41.34512,-92.34692 92.34692,-92.34692c51.00179,0 92.34692,41.34512 92.34692,92.34692c0,51.00179 -41.34512,92.34692 -92.34692,92.34692c-51.00179,0 -92.34692,-41.34512 -92.34692,-92.34692z" stroke="#42efbf"/><path d="M348.38778,326c0,-45.90161 37.21061,-83.11222 83.11222,-83.11222c45.90161,0 83.11222,37.21061 83.11222,83.11222c0,45.90161 -37.21061,83.11222 -83.11222,83.11222c-45.90161,0 -83.11222,-37.21061 -83.11222,-83.11222z" stroke="#42efbf"/><path d="M356.699,326c0,-41.31145 33.48955,-74.801 74.801,-74.801c41.31145,0 74.801,33.48955 74.801,74.801c0,41.31145 -33.48955,74.801 -74.801,74.801c-41.31145,0 -74.801,-33.48955 -74.801,-74.801z" stroke="#42efbf"/><path d="M364.1791,326c0,-37.18031 30.14059,-67.3209 67.3209,-67.3209c37.18031,0 67.3209,30.14059 67.3209,67.3209c0,37.18031 -30.14059,67.3209 -67.3209,67.3209c-37.18031,0 -67.3209,-30.14059 -67.3209,-67.3209z" stroke="#42efbf"/><path d="M370.91119,326c0,-33.46228 27.12653,-60.58881 60.58881,-60.58881c33.46228,0 60.58881,27.12653 60.58881,60.58881c0,33.46228 -27.12653,60.58881 -60.58881,60.58881c-33.46228,0 -60.58881,-27.12653 -60.58881,-60.58881z" stroke="#42efbf"/><path d="M376.97007,326c0,-30.11605 24.41388,-54.52993 54.52993,-54.52993c30.11605,0 54.52993,24.41388 54.52993,54.52993c0,30.11605 -24.41388,54.52993 -54.52993,54.52993c-30.11605,0 -54.52993,-24.41388 -54.52993,-54.52993z" stroke="#42efbf"/><path d="M382.42306,326c0,-27.10444 21.97249,-49.07694 49.07694,-49.07694c27.10444,0 49.07694,21.97249 49.07694,49.07694c0,27.10444 -21.97249,49.07694 -49.07694,49.07694c-27.10444,0 -49.07694,-21.97249 -49.07694,-49.07694z" stroke="#42efbf"/><path d="M387.33076,326c0,-24.394 19.77524,-44.16924 44.16924,-44.16924c24.394,0 44.16924,19.77524 44.16924,44.16924c0,24.394 -19.77524,44.16924 -44.16924,44.16924c-24.394,0 -44.16924,-19.77524 -44.16924,-44.16924z" stroke="#42efbf"/><path d="M391.74768,326c0,-21.9546 17.79772,-39.75232 39.75232,-39.75232c21.9546,0 39.75232,17.79772 39.75232,39.75232c0,21.9546 -17.79772,39.75232 -39.75232,39.75232c-21.9546,0 -39.75232,-17.79772 -39.75232,-39.75232z" stroke="#42efbf"/><path d="M395.72291,326c0,-19.75914 16.01795,-35.77709 35.77709,-35.77709c19.75914,0 35.77709,16.01795 35.77709,35.77709c0,19.75914 -16.01795,35.77709 -35.77709,35.77709c-19.75914,0 -35.77709,-16.01795 -35.77709,-35.77709z" stroke="#42efbf"/><path d="M399.30062,326c0,-17.78323 14.41615,-32.19938 32.19938,-32.19938c17.78323,0 32.19938,14.41615 32.19938,32.19938c0,17.78323 -14.41615,32.19938 -32.19938,32.19938c-17.78323,0 -32.19938,-14.41615 -32.19938,-32.19938z" stroke="#42efbf"/><path d="M402.52056,326c0,-16.0049 12.97454,-28.97944 28.97944,-28.97944c16.0049,0 28.97944,12.97454 28.97944,28.97944c0,16.0049 -12.97454,28.97944 -28.97944,28.97944c-16.0049,0 -28.97944,-12.97454 -28.97944,-28.97944z" stroke="#42efbf"/><path d="M405.4185,326c0,-14.40441 11.67708,-26.0815 26.0815,-26.0815c14.40441,0 26.0815,11.67708 26.0815,26.0815c0,14.40441 -11.67708,26.0815 -26.0815,26.0815c-14.40441,0 -26.0815,-11.67708 -26.0815,-26.0815z" stroke="#42efbf"/><path d="M408.02665,326c0,-12.96397 10.50938,-23.47335 23.47335,-23.47335c12.96397,0 23.47335,10.50938 23.47335,23.47335c0,12.96397 -10.50938,23.47335 -23.47335,23.47335c-12.96397,0 -23.47335,-10.50938 -23.47335,-23.47335z" stroke="#42efbf"/><path d="M410.37399,326c0,-11.66757 9.45844,-21.12601 21.12601,-21.12601c11.66757,0 21.12601,9.45844 21.12601,21.12601c0,11.66757 -9.45844,21.12601 -21.12601,21.12601c-11.66757,0 -21.12601,-9.45844 -21.12601,-21.12601z" stroke="#42efbf"/><path d="M412.48659,326c0,-10.50082 8.51259,-19.01341 19.01341,-19.01341c10.50082,0 19.01341,8.51259 19.01341,19.01341c0,10.50082 -8.51259,19.01341 -19.01341,19.01341c-10.50082,0 -19.01341,-8.51259 -19.01341,-19.01341z" stroke="#42efbf"/><path d="M414.38793,326c0,-9.45074 7.66133,-17.11207 17.11207,-17.11207c9.45074,0 17.11207,7.66133 17.11207,17.11207c0,9.45074 -7.66133,17.11207 -17.11207,17.11207c-9.45074,0 -17.11207,-7.66133 -17.11207,-17.11207z" stroke="#42efbf"/><path d="M416.09914,326c0,-8.50566 6.8952,-15.40086 15.40086,-15.40086c8.50566,0 15.40086,6.8952 15.40086,15.40086c0,8.50566 -6.8952,15.40086 -15.40086,15.40086c-8.50566,0 -15.40086,-6.8952 -15.40086,-15.40086z" stroke="#42efbf"/><path d="M417.63922,326c0,-7.6551 6.20568,-13.86078 13.86078,-13.86078c7.6551,0 13.86078,6.20568 13.86078,13.86078c0,7.6551 -6.20568,13.86078 -13.86078,13.86078c-7.6551,0 -13.86078,-6.20568 -13.86078,-13.86078z" stroke="#42efbf"/><path d="M419.0253,326c0,-6.88959 5.58511,-12.4747 12.4747,-12.4747c6.88959,0 12.4747,5.58511 12.4747,12.4747c0,6.88959 -5.58511,12.4747 -12.4747,12.4747c-6.88959,0 -12.4747,-5.58511 -12.4747,-12.4747z" stroke="#42efbf"/><path d="M420.27277,326c0,-6.20063 5.0266,-11.22723 11.22723,-11.22723c6.20063,0 11.22723,5.0266 11.22723,11.22723c0,6.20063 -5.0266,11.22723 -11.22723,11.22723c-6.20063,0 -11.22723,-5.0266 -11.22723,-11.22723z" stroke="#42efbf"/><path d="M419.15005,326c0,-6.82069 5.52926,-12.34995 12.34995,-12.34995c6.82069,0 12.34995,5.52926 12.34995,12.34995c0,6.82069 -5.52926,12.34995 -12.34995,12.34995c-6.82069,0 -12.34995,-5.52926 -12.34995,-12.34995z" stroke="#42efbf"/><path d="M413.83957,326c0,-9.75359 7.90684,-17.66043 17.66043,-17.66043c9.75359,0 17.66043,7.90684 17.66043,17.66043c0,9.75359 -7.90684,17.66043 -17.66043,17.66043c-9.75359,0 -17.66043,-7.90684 -17.66043,-17.66043z" stroke="#e68007"/><path d="M415.44506,326c0,-8.8669 7.18804,-16.05494 16.05494,-16.05494c8.8669,0 16.05494,7.18804 16.05494,16.05494c0,8.8669 -7.18804,16.05494 -16.05494,16.05494c-8.8669,0 -16.05494,-7.18804 -16.05494,-16.05494z" stroke="#e68007"/><path d="M412.07353,326c0,-10.72895 8.69753,-19.42647 19.42647,-19.42647c10.72895,0 19.42647,8.69753 19.42647,19.42647c0,10.72895 -8.69753,19.42647 -19.42647,19.42647c-10.72895,0 -19.42647,-8.69753 -19.42647,-19.42647z" stroke="#e68007"/><path d="M410.13088,326c0,-11.80184 9.56728,-21.36912 21.36912,-21.36912c11.80184,0 21.36912,9.56728 21.36912,21.36912c0,11.80184 -9.56728,21.36912 -21.36912,21.36912c-11.80184,0 -21.36912,-9.56728 -21.36912,-21.36912z" stroke="#e68007"/><path d="M407.99397,326c0,-12.98202 10.52401,-23.50603 23.50603,-23.50603c12.98202,0 23.50603,10.52401 23.50603,23.50603c0,12.98202 -10.52401,23.50603 -23.50603,23.50603c-12.98202,0 -23.50603,-10.52401 -23.50603,-23.50603z" stroke="#e68007"/><path d="M405.64336,326c0,-14.28023 11.57641,-25.85664 25.85664,-25.85664c14.28023,0 25.85664,11.57641 25.85664,25.85664c0,14.28023 -11.57641,25.85664 -25.85664,25.85664c-14.28023,0 -25.85664,-11.57641 -25.85664,-25.85664z" stroke="#e68007"/><path d="M403.0577,326c0,-15.70825 12.73405,-28.4423 28.4423,-28.4423c15.70825,0 28.4423,12.73405 28.4423,28.4423c0,15.70825 -12.73405,28.4423 -28.4423,28.4423c-15.70825,0 -28.4423,-12.73405 -28.4423,-28.4423z" stroke="#e68007"/><path d="M400.21347,326c0,-17.27907 14.00746,-31.28653 31.28653,-31.28653c17.27907,0 31.28653,14.00746 31.28653,31.28653c0,17.27907 -14.00746,31.28653 -31.28653,31.28653c-17.27907,0 -31.28653,-14.00746 -31.28653,-31.28653z" stroke="#e68007"/><path d="M397.08482,326c0,-19.00698 15.4082,-34.41518 34.41518,-34.41518c19.00698,0 34.41518,15.4082 34.41518,34.41518c0,19.00698 -15.4082,34.41518 -34.41518,34.41518c-19.00698,0 -34.41518,-15.4082 -34.41518,-34.41518z" stroke="#e68007"/><path d="M393.6433,326c0,-20.90768 16.94902,-37.8567 37.8567,-37.8567c20.90768,0 37.8567,16.94902 37.8567,37.8567c0,20.90768 -16.94902,37.8567 -37.8567,37.8567c-20.90768,0 -37.8567,-16.94902 -37.8567,-37.8567z" stroke="#e68007"/><path d="M389.85763,326c0,-22.99845 18.64393,-41.64237 41.64237,-41.64237c22.99845,0 41.64237,18.64393 41.64237,41.64237c0,22.99845 -18.64393,41.64237 -41.64237,41.64237c-22.99845,0 -41.64237,-18.64393 -41.64237,-41.64237z" stroke="#e68007"/><path d="M385.69339,326c0,-25.29829 20.50832,-45.80661 45.80661,-45.80661c25.29829,0 45.80661,20.50832 45.80661,45.80661c0,25.29829 -20.50832,45.80661 -45.80661,45.80661c-25.29829,0 -45.80661,-20.50832 -45.80661,-45.80661z" stroke="#e68007"/><path d="M381.11273,326c0,-27.82812 22.55915,-50.38727 50.38727,-50.38727c27.82812,0 50.38727,22.55915 50.38727,50.38727c0,27.82812 -22.55915,50.38727 -50.38727,50.38727c-27.82812,0 -50.38727,-22.55915 -50.38727,-50.38727z" stroke="#e68007"/><path d="M376.074,326c0,-30.61093 24.81506,-55.426 55.426,-55.426c30.61093,0 55.426,24.81506 55.426,55.426c0,30.61093 -24.81506,55.426 -55.426,55.426c-30.61093,0 -55.426,-24.81506 -55.426,-55.426z" stroke="#e68007"/><path d="M370.5314,326c0,-33.67203 27.29657,-60.9686 60.9686,-60.9686c33.67203,0 60.9686,27.29657 60.9686,60.9686c0,33.67203 -27.29657,60.9686 -60.9686,60.9686c-33.67203,0 -60.9686,-27.29657 -60.9686,-60.9686z" stroke="#e68007"/><path d="M364.43454,326c0,-37.03923 30.02623,-67.06546 67.06546,-67.06546c37.03923,0 67.06546,30.02623 67.06546,67.06546c0,37.03923 -30.02623,67.06546 -67.06546,67.06546c-37.03923,0 -67.06546,-30.02623 -67.06546,-67.06546z" stroke="#e68007"/><path d="M357.728,326c0,-40.74315 33.02885,-73.772 73.772,-73.772c40.74315,0 73.772,33.02885 73.772,73.772c0,40.74315 -33.02885,73.772 -73.772,73.772c-40.74315,0 -73.772,-33.02885 -73.772,-73.772z" stroke="#e68007"/><path d="M350.3508,326c0,-44.81747 36.33174,-81.1492 81.1492,-81.1492c44.81747,0 81.1492,36.33174 81.1492,81.1492c0,44.81747 -36.33174,81.1492 -81.1492,81.1492c-44.81747,0 -81.1492,-36.33174 -81.1492,-81.1492z" stroke="#e68007"/><path d="M342.23587,326c0,-49.29922 39.96491,-89.26413 89.26413,-89.26413c49.29922,0 89.26413,39.96491 89.26413,89.26413c0,49.29922 -39.96491,89.26413 -89.26413,89.26413c-49.29922,0 -89.26413,-39.96491 -89.26413,-89.26413z" stroke="#e68007"/><path d="M333.30946,326c0,-54.22914 43.9614,-98.19054 98.19054,-98.19054c54.22914,0 98.19054,43.9614 98.19054,98.19054c0,54.22914 -43.9614,98.19054 -98.19054,98.19054c-54.22914,0 -98.19054,-43.9614 -98.19054,-98.19054z" stroke="#e68007"/><path d="M323.49041,326c0,-59.65205 48.35754,-108.00959 108.00959,-108.00959c59.65205,0 108.00959,48.35754 108.00959,108.00959c0,59.65205 -48.35754,108.00959 -108.00959,108.00959c-59.65205,0 -108.00959,-48.35754 -108.00959,-108.00959z" stroke="#e68007"/><path d="M312.68945,326c0,-65.61726 53.1933,-118.81055 118.81055,-118.81055c65.61726,0 118.81055,53.1933 118.81055,118.81055c0,65.61726 -53.1933,118.81055 -118.81055,118.81055c-65.61726,0 -118.81055,-53.1933 -118.81055,-118.81055z" stroke="#e68007"/><path d="M300.80839,326c0,-72.17898 58.51263,-130.69161 130.69161,-130.69161c72.17898,0 130.69161,58.51263 130.69161,130.69161c0,72.17898 -58.51263,130.69161 -130.69161,130.69161c-72.17898,0 -130.69161,-58.51263 -130.69161,-130.69161z" stroke="#e68007"/><path d="M287.73923,326c0,-79.39688 64.36389,-143.76077 143.76077,-143.76077c79.39688,0 143.76077,64.36389 143.76077,143.76077c0,79.39688 -64.36389,143.76077 -143.76077,143.76077c-79.39688,0 -143.76077,-64.36389 -143.76077,-143.76077z" stroke="#e68007"/><path d="M273.36316,326c0,-87.33657 70.80028,-158.13684 158.13684,-158.13684c87.33657,0 158.13684,70.80028 158.13684,158.13684c0,87.33657 -70.80028,158.13684 -158.13684,158.13684c-87.33657,0 -158.13684,-70.80028 -158.13684,-158.13684z" stroke="#e68007"/><path d="M257.54947,326c0,-96.07022 77.8803,-173.95053 173.95053,-173.95053c96.07022,0 173.95053,77.8803 173.95053,173.95053c0,96.07022 -77.8803,173.95053 -173.95053,173.95053c-96.07022,0 -173.95053,-77.8803 -173.95053,-173.95053z" stroke="#e68007"/><path d="M240.15442,326c0,-105.67725 85.66833,-191.34558 191.34558,-191.34558c105.67725,0 191.34558,85.66833 191.34558,191.34558c0,105.67725 -85.66833,191.34558 -191.34558,191.34558c-105.67725,0 -191.34558,-85.66833 -191.34558,-191.34558z" stroke="#e68007"/><path d="M221.01986,326c0,-116.24497 94.23517,-210.48014 210.48014,-210.48014c116.24497,0 210.48014,94.23517 210.48014,210.48014c0,116.24497 -94.23517,210.48014 -210.48014,210.48014c-116.24497,0 -210.48014,-94.23517 -210.48014,-210.48014z" stroke="#e68007"/><path d="M199.97185,326c0,-127.86947 103.65868,-231.52815 231.52815,-231.52815c127.86947,0 231.52815,103.65868 231.52815,231.52815c0,127.86947 -103.65868,231.52815 -231.52815,231.52815c-127.86947,0 -231.52815,-103.65868 -231.52815,-231.52815z" stroke="#e68007"/><path d="M176.81903,326c0,-140.65641 114.02455,-254.68097 254.68097,-254.68097c140.65641,0 254.68097,114.02455 254.68097,254.68097c0,140.65641 -114.02455,254.68097 -254.68097,254.68097c-140.65641,0 -254.68097,-114.02455 -254.68097,-254.68097z" stroke="#e68007"/><path d="M202.28713,326c0,-126.59077 102.6221,-229.21287 229.21287,-229.21287c126.59077,0 229.21287,102.6221 229.21287,229.21287c0,126.59077 -102.6221,229.21287 -229.21287,229.21287c-126.59077,0 -229.21287,-102.6221 -229.21287,-229.21287z" stroke="#e68007"/><path d="M225.20842,326c0,-113.9317 92.35989,-206.29158 206.29158,-206.29158c113.9317,0 206.29158,92.35989 206.29158,206.29158c0,113.9317 -92.35989,206.29158 -206.29158,206.29158c-113.9317,0 -206.29158,-92.35989 -206.29158,-206.29158z" stroke="#e68007"/><path d="M245.83757,326c0,-102.53853 83.1239,-185.66243 185.66243,-185.66243c102.53853,0 185.66243,83.1239 185.66243,185.66243c0,102.53853 -83.1239,185.66243 -185.66243,185.66243c-102.53853,0 -185.66243,-83.1239 -185.66243,-185.66243z" stroke="#e68007"/><path d="M264.40382,326c0,-92.28467 74.81151,-167.09618 167.09618,-167.09618c92.28467,0 167.09618,74.81151 167.09618,167.09618c0,92.28467 -74.81151,167.09618 -167.09618,167.09618c-92.28467,0 -167.09618,-74.81151 -167.09618,-167.09618z" stroke="#e68007"/><path d="M281.11344,326c0,-83.05621 67.33036,-150.38656 150.38656,-150.38656c83.05621,0 150.38656,67.33036 150.38656,150.38656c0,83.05621 -67.33036,150.38656 -150.38656,150.38656c-83.05621,0 -150.38656,-67.33036 -150.38656,-150.38656z" stroke="#e68007"/><path d="M296.15209,326c0,-74.75059 60.59732,-135.34791 135.34791,-135.34791c74.75059,0 135.34791,60.59732 135.34791,135.34791c0,74.75059 -60.59732,135.34791 -135.34791,135.34791c-74.75059,0 -135.34791,-60.59732 -135.34791,-135.34791z" stroke="#e68007"/><path d="M309.68688,326c0,-67.27553 54.53759,-121.81312 121.81312,-121.81312c67.27553,0 121.81312,54.53759 121.81312,121.81312c0,67.27553 -54.53759,121.81312 -121.81312,121.81312c-67.27553,0 -121.81312,-54.53759 -121.81312,-121.81312z" stroke="#e68007"/><path d="M321.86819,326c0,-60.54797 49.08383,-109.63181 109.63181,-109.63181c60.54797,0 109.63181,49.08383 109.63181,109.63181c0,60.54797 -49.08383,109.63181 -109.63181,109.63181c-60.54797,0 -109.63181,-49.08383 -109.63181,-109.63181z" stroke="#e68007"/><path d="M332.83138,326c0,-54.49318 44.17545,-98.66862 98.66862,-98.66862c54.49318,0 98.66862,44.17545 98.66862,98.66862c0,54.49318 -44.17545,98.66862 -98.66862,98.66862c-54.49318,0 -98.66862,-44.17545 -98.66862,-98.66862z" stroke="#e68007"/><path d="M342.69824,326c0,-49.04386 39.7579,-88.80176 88.80176,-88.80176c49.04386,0 88.80176,39.7579 88.80176,88.80176c0,49.04386 -39.7579,88.80176 -88.80176,88.80176c-49.04386,0 -88.80176,-39.7579 -88.80176,-88.80176z" stroke="#e68007"/><path d="M351.57841,326c0,-44.13947 35.78211,-79.92159 79.92159,-79.92159c44.13947,0 79.92159,35.78211 79.92159,79.92159c0,44.13947 -35.78211,79.92159 -79.92159,79.92159c-44.13947,0 -79.92159,-35.78211 -79.92159,-79.92159z" stroke="#e68007"/><path d="M359.57057,326c0,-39.72553 32.2039,-71.92943 71.92943,-71.92943c39.72553,0 71.92943,32.2039 71.92943,71.92943c0,39.72553 -32.2039,71.92943 -71.92943,71.92943c-39.72553,0 -71.92943,-32.2039 -71.92943,-71.92943z" stroke="#e68007"/><path d="M366.76352,326c0,-35.75297 28.98351,-64.73648 64.73648,-64.73648c35.75297,0 64.73648,28.98351 64.73648,64.73648c0,35.75297 -28.98351,64.73648 -64.73648,64.73648c-35.75297,0 -64.73648,-28.98351 -64.73648,-64.73648z" stroke="#e68007"/><path d="M373.23716,326c0,-32.17768 26.08516,-58.26284 58.26284,-58.26284c32.17768,0 58.26284,26.08516 58.26284,58.26284c0,32.17768 -26.08516,58.26284 -58.26284,58.26284c-32.17768,0 -58.26284,-26.08516 -58.26284,-58.26284z" stroke="#e68007"/><path d="M379.06345,326c0,-28.95991 23.47664,-52.43655 52.43655,-52.43655c28.95991,0 52.43655,23.47664 52.43655,52.43655c0,28.95991 -23.47664,52.43655 -52.43655,52.43655c-28.95991,0 -52.43655,-23.47664 -52.43655,-52.43655z" stroke="#e68007"/><path d="M384.3071,326c0,-26.06392 21.12898,-47.1929 47.1929,-47.1929c26.06392,0 47.1929,21.12898 47.1929,47.1929c0,26.06392 -21.12898,47.1929 -47.1929,47.1929c-26.06392,0 -47.1929,-21.12898 -47.1929,-47.1929z" stroke="#e68007"/><path d="M389.02639,326c0,-23.45753 19.01608,-42.47361 42.47361,-42.47361c23.45753,0 42.47361,19.01608 42.47361,42.47361c0,23.45753 -19.01608,42.47361 -42.47361,42.47361c-23.45753,0 -42.47361,-19.01608 -42.47361,-42.47361z" stroke="#e68007"/><path d="M393.27375,326c0,-21.11177 17.11447,-38.22625 38.22625,-38.22625c21.11177,0 38.22625,17.11447 38.22625,38.22625c0,21.11177 -17.11447,38.22625 -38.22625,38.22625c-21.11177,0 -38.22625,-17.11447 -38.22625,-38.22625z" stroke="#e68007"/><path d="M397.09638,326c0,-19.0006 15.40303,-34.40362 34.40362,-34.40362c19.0006,0 34.40362,15.40303 34.40362,34.40362c0,19.0006 -15.40303,34.40362 -34.40362,34.40362c-19.0006,0 -34.40362,-15.40303 -34.40362,-34.40362z" stroke="#e68007"/><path d="M400.53674,326c0,-17.10054 13.86272,-30.96326 30.96326,-30.96326c17.10054,0 30.96326,13.86272 30.96326,30.96326c0,17.10054 -13.86272,30.96326 -30.96326,30.96326c-17.10054,0 -30.96326,-13.86272 -30.96326,-30.96326z" stroke="#e68007"/><path d="M403.63307,326c0,-15.39048 12.47645,-27.86693 27.86693,-27.86693c15.39048,0 27.86693,12.47645 27.86693,27.86693c0,15.39048 -12.47645,27.86693 -27.86693,27.86693c-15.39048,0 -27.86693,-12.47645 -27.86693,-27.86693z" stroke="#e68007"/><path d="M406.41976,326c0,-13.85143 11.22881,-25.08024 25.08024,-25.08024c13.85143,0 25.08024,11.22881 25.08024,25.08024c0,13.85143 -11.22881,25.08024 -25.08024,25.08024c-13.85143,0 -25.08024,-11.22881 -25.08024,-25.08024z" stroke="#e68007"/><path d="M408.92778,326c0,-12.46629 10.10593,-22.57222 22.57222,-22.57222c12.46629,0 22.57222,10.10593 22.57222,22.57222c0,12.46629 -10.10593,22.57222 -22.57222,22.57222c-12.46629,0 -22.57222,-10.10593 -22.57222,-22.57222z" stroke="#e68007"/><path d="M411.18501,326c0,-11.21966 9.09533,-20.31499 20.31499,-20.31499c11.21966,0 20.31499,9.09533 20.31499,20.31499c0,11.21966 -9.09533,20.31499 -20.31499,20.31499c-11.21966,0 -20.31499,-9.09533 -20.31499,-20.31499z" stroke="#e68007"/><path d="M413.2165,326c0,-10.0977 8.1858,-18.2835 18.2835,-18.2835c10.0977,0 18.2835,8.1858 18.2835,18.2835c0,10.0977 -8.1858,18.2835 -18.2835,18.2835c-10.0977,0 -18.2835,-8.1858 -18.2835,-18.2835z" stroke="#e68007"/><path d="M415.04485,326c0,-9.08793 7.36722,-16.45515 16.45515,-16.45515c9.08793,0 16.45515,7.36722 16.45515,16.45515c0,9.08793 -7.36722,16.45515 -16.45515,16.45515c-9.08793,0 -16.45515,-7.36722 -16.45515,-16.45515z" stroke="#e68007"/><path d="M416.69037,326c0,-8.17913 6.6305,-14.80963 14.80963,-14.80963c8.17913,0 14.80963,6.6305 14.80963,14.80963c0,8.17913 -6.6305,14.80963 -14.80963,14.80963c-8.17913,0 -14.80963,-6.6305 -14.80963,-14.80963z" stroke="#e68007"/><path d="M418.17133,326c0,-7.36122 5.96745,-13.32867 13.32867,-13.32867c7.36122,0 13.32867,5.96745 13.32867,13.32867c0,7.36122 -5.96745,13.32867 -13.32867,13.32867c-7.36122,0 -13.32867,-5.96745 -13.32867,-13.32867z" stroke="#e68007"/><path d="M419.5042,326c0,-6.6251 5.3707,-11.9958 11.9958,-11.9958c6.6251,0 11.9958,5.3707 11.9958,11.9958c0,6.6251 -5.3707,11.9958 -11.9958,11.9958c-6.6251,0 -11.9958,-5.3707 -11.9958,-11.9958z" stroke="#e68007"/><path d="M418.30462,326c0,-7.28761 5.90777,-13.19538 13.19538,-13.19538c7.28761,0 13.19538,5.90777 13.19538,13.19538c0,7.28761 -5.90777,13.19538 -13.19538,13.19538c-7.28761,0 -13.19538,-5.90777 -13.19538,-13.19538z" stroke="#e68007"/><path d="M412.6306,326c0,-10.42128 8.44812,-18.8694 18.8694,-18.8694c10.42128,0 18.8694,8.44812 18.8694,18.8694c0,10.42128 -8.44812,18.8694 -18.8694,18.8694c-10.42128,0 -18.8694,-8.44812 -18.8694,-18.8694z" stroke="#48f166"/><path d="M414.346,326c0,-9.47389 7.68011,-17.154 17.154,-17.154c9.47389,0 17.154,7.68011 17.154,17.154c0,9.47389 -7.68011,17.154 -17.154,17.154c-9.47389,0 -17.154,-7.68011 -17.154,-17.154z" stroke="#48f166"/><path d="M410.74366,326c0,-11.46341 9.29293,-20.75634 20.75634,-20.75634c11.46341,0 20.75634,9.29293 20.75634,20.75634c0,11.46341 -9.29293,20.75634 -20.75634,20.75634c-11.46341,0 -20.75634,-9.29293 -20.75634,-20.75634z" stroke="#48f166"/><path d="M408.66803,326c0,-12.60975 10.22222,-22.83197 22.83197,-22.83197c12.60975,0 22.83197,10.22222 22.83197,22.83197c0,12.60975 -10.22222,22.83197 -22.83197,22.83197c-12.60975,0 -22.83197,-10.22222 -22.83197,-22.83197z" stroke="#48f166"/><path d="M406.38483,326c0,-13.87072 11.24444,-25.11517 25.11517,-25.11517c13.87072,0 25.11517,11.24444 25.11517,25.11517c0,13.87072 -11.24444,25.11517 -25.11517,25.11517c-13.87072,0 -25.11517,-11.24444 -25.11517,-25.11517z" stroke="#48f166"/><path d="M403.87332,326c0,-15.2578 12.36889,-27.62668 27.62668,-27.62668c15.2578,0 27.62668,12.36889 27.62668,27.62668c0,15.2578 -12.36889,27.62668 -27.62668,27.62668c-15.2578,0 -27.62668,-12.36889 -27.62668,-27.62668z" stroke="#48f166"/><path d="M401.11065,326c0,-16.78357 13.60578,-30.38935 30.38935,-30.38935c16.78357,0 30.38935,13.60578 30.38935,30.38935c0,16.78357 -13.60578,30.38935 -30.38935,30.38935c-16.78357,0 -30.38935,-13.60578 -30.38935,-30.38935z" stroke="#48f166"/><path d="M398.07171,326c0,-18.46193 14.96635,-33.42829 33.42829,-33.42829c18.46193,0 33.42829,14.96635 33.42829,33.42829c0,18.46193 -14.96635,33.42829 -33.42829,33.42829c-18.46193,0 -33.42829,-14.96635 -33.42829,-33.42829z" stroke="#48f166"/><path d="M394.72889,326c0,-20.30813 16.46299,-36.77111 36.77111,-36.77111c20.30813,0 36.77111,16.46299 36.77111,36.77111c0,20.30813 -16.46299,36.77111 -36.77111,36.77111c-20.30813,0 -36.77111,-16.46299 -36.77111,-36.77111z" stroke="#48f166"/><path d="M391.05177,326c0,-22.33894 18.10929,-40.44823 40.44823,-40.44823c22.33894,0 40.44823,18.10929 40.44823,40.44823c0,22.33894 -18.10929,40.44823 -40.44823,40.44823c-22.33894,0 -40.44823,-18.10929 -40.44823,-40.44823z" stroke="#48f166"/><path d="M387.00695,326c0,-24.57283 19.92022,-44.49305 44.49305,-44.49305c24.57283,0 44.49305,19.92022 44.49305,44.49305c0,24.57283 -19.92022,44.49305 -44.49305,44.49305c-24.57283,0 -44.49305,-19.92022 -44.49305,-44.49305z" stroke="#48f166"/><path d="M382.55765,326c0,-27.03011 21.91224,-48.94235 48.94235,-48.94235c27.03011,0 48.94235,21.91224 48.94235,48.94235c0,27.03011 -21.91224,48.94235 -48.94235,48.94235c-27.03011,0 -48.94235,-21.91224 -48.94235,-48.94235z" stroke="#48f166"/><path d="M377.66341,326c0,-29.73313 24.10346,-53.83659 53.83659,-53.83659c29.73313,0 53.83659,24.10346 53.83659,53.83659c0,29.73313 -24.10346,53.83659 -53.83659,53.83659c-29.73313,0 -53.83659,-24.10346 -53.83659,-53.83659z" stroke="#48f166"/><path d="M372.27975,326c0,-32.70644 26.51381,-59.22025 59.22025,-59.22025c32.70644,0 59.22025,26.51381 59.22025,59.22025c0,32.70644 -26.51381,59.22025 -59.22025,59.22025c-32.70644,0 -59.22025,-26.51381 -59.22025,-59.22025z" stroke="#48f166"/><path d="M366.35773,326c0,-35.97708 29.16519,-65.14227 65.14227,-65.14227c35.97708,0 65.14227,29.16519 65.14227,65.14227c0,35.97708 -29.16519,65.14227 -65.14227,65.14227c-35.97708,0 -65.14227,-29.16519 -65.14227,-65.14227z" stroke="#48f166"/><path d="M359.8435,326c0,-39.57479 32.08171,-71.6565 71.6565,-71.6565c39.57479,0 71.6565,32.08171 71.6565,71.6565c0,39.57479 -32.08171,71.6565 -71.6565,71.6565c-39.57479,0 -71.6565,-32.08171 -71.6565,-71.6565z" stroke="#48f166"/><path d="M352.67785,326c0,-43.53227 35.28988,-78.82215 78.82215,-78.82215c43.53227,0 78.82215,35.28988 78.82215,78.82215c0,43.53227 -35.28988,78.82215 -78.82215,78.82215c-43.53227,0 -78.82215,-35.28988 -78.82215,-78.82215z" stroke="#48f166"/><path d="M344.79564,326c0,-47.8855 38.81887,-86.70436 86.70436,-86.70436c47.8855,0 86.70436,38.81887 86.70436,86.70436c0,47.8855 -38.81887,86.70436 -86.70436,86.70436c-47.8855,0 -86.70436,-38.81887 -86.70436,-86.70436z" stroke="#48f166"/><path d="M336.1252,326c0,-52.67405 42.70075,-95.3748 95.3748,-95.3748c52.67405,0 95.3748,42.70075 95.3748,95.3748c0,52.67405 -42.70075,95.3748 -95.3748,95.3748c-52.67405,0 -95.3748,-42.70075 -95.3748,-95.3748z" stroke="#48f166"/><path d="M326.58772,326c0,-57.94145 46.97083,-104.91228 104.91228,-104.91228c57.94145,0 104.91228,46.97083 104.91228,104.91228c0,57.94145 -46.97083,104.91228 -104.91228,104.91228c-57.94145,0 -104.91228,-46.97083 -104.91228,-104.91228z" stroke="#48f166"/><path d="M316.09649,326c0,-63.7356 51.66791,-115.40351 115.40351,-115.40351c63.7356,0 115.40351,51.66791 115.40351,115.40351c0,63.7356 -51.66791,115.40351 -115.40351,115.40351c-63.7356,0 -115.40351,-51.66791 -115.40351,-115.40351z" stroke="#48f166"/><path d="M304.55614,326c0,-70.10916 56.8347,-126.94386 126.94386,-126.94386c70.10916,0 126.94386,56.8347 126.94386,126.94386c0,70.10916 -56.8347,126.94386 -126.94386,126.94386c-70.10916,0 -126.94386,-56.8347 -126.94386,-126.94386z" stroke="#48f166"/><path d="M291.86176,326c0,-77.12007 62.51817,-139.63824 139.63824,-139.63824c77.12007,0 139.63824,62.51817 139.63824,139.63824c0,77.12007 -62.51817,139.63824 -139.63824,139.63824c-77.12007,0 -139.63824,-62.51817 -139.63824,-139.63824z" stroke="#48f166"/><path d="M277.89793,326c0,-84.83208 68.76999,-153.60207 153.60207,-153.60207c84.83208,0 153.60207,68.76999 153.60207,153.60207c0,84.83208 -68.76999,153.60207 -153.60207,153.60207c-84.83208,0 -153.60207,-68.76999 -153.60207,-153.60207z" stroke="#48f166"/><path d="M262.53773,326c0,-93.31529 75.64699,-168.96227 168.96227,-168.96227c93.31529,0 168.96227,75.64699 168.96227,168.96227c0,93.31529 -75.64699,168.96227 -168.96227,168.96227c-93.31529,0 -168.96227,-75.64699 -168.96227,-168.96227z" stroke="#48f166"/><path d="M245.6415,326c0,-102.64682 83.21169,-185.8585 185.8585,-185.8585c102.64682,0 185.8585,83.21169 185.8585,185.8585c0,102.64682 -83.21169,185.8585 -185.8585,185.8585c-102.64682,0 -185.8585,-83.21169 -185.8585,-185.8585z" stroke="#48f166"/><path d="M227.05565,326c0,-112.9115 91.53285,-204.44435 204.44435,-204.44435c112.9115,0 204.44435,91.53285 204.44435,204.44435c0,112.9115 -91.53285,204.44435 -204.44435,204.44435c-112.9115,0 -204.44435,-91.53285 -204.44435,-204.44435z" stroke="#48f166"/><path d="M206.61121,326c0,-124.20265 100.68614,-224.88879 224.88879,-224.88879c124.20265,0 224.88879,100.68614 224.88879,224.88879c0,124.20265 -100.68614,224.88879 -224.88879,224.88879c-124.20265,0 -224.88879,-100.68614 -224.88879,-224.88879z" stroke="#48f166"/><path d="M184.12233,326c0,-136.62291 110.75475,-247.37767 247.37767,-247.37767c136.62291,0 247.37767,110.75475 247.37767,247.37767c0,136.62291 -110.75475,247.37767 -247.37767,247.37767c-136.62291,0 -247.37767,-110.75475 -247.37767,-247.37767z" stroke="#48f166"/><path d="M159.38457,326c0,-150.2852 121.83023,-272.11543 272.11543,-272.11543c150.2852,0 272.11543,121.83023 272.11543,272.11543c0,150.2852 -121.83023,272.11543 -272.11543,272.11543c-150.2852,0 -272.11543,-121.83023 -272.11543,-272.11543z" stroke="#48f166"/><path d="M186.59611,326c0,-135.25668 109.64721,-244.90389 244.90389,-244.90389c135.25668,0 244.90389,109.64721 244.90389,244.90389c0,135.25668 -109.64721,244.90389 -244.90389,244.90389c-135.25668,0 -244.90389,-109.64721 -244.90389,-244.90389z" stroke="#48f166"/><path d="M211.0865,326c0,-121.73101 98.68249,-220.4135 220.4135,-220.4135c121.73101,0 220.4135,98.68249 220.4135,220.4135c0,121.73101 -98.68249,220.4135 -220.4135,220.4135c-121.73101,0 -220.4135,-98.68249 -220.4135,-220.4135z" stroke="#48f166"/><path d="M233.12785,326c0,-109.55791 88.81424,-198.37215 198.37215,-198.37215c109.55791,0 198.37215,88.81424 198.37215,198.37215c0,109.55791 -88.81424,198.37215 -198.37215,198.37215c-109.55791,0 -198.37215,-88.81424 -198.37215,-198.37215z" stroke="#48f166"/><path d="M252.96507,326c0,-98.60212 79.93281,-178.53493 178.53493,-178.53493c98.60212,0 178.53493,79.93281 178.53493,178.53493c0,98.60212 -79.93281,178.53493 -178.53493,178.53493c-98.60212,0 -178.53493,-79.93281 -178.53493,-178.53493z" stroke="#48f166"/><path d="M270.81856,326c0,-88.74191 71.93953,-160.68144 160.68144,-160.68144c88.74191,0 160.68144,71.93953 160.68144,160.68144c0,88.74191 -71.93953,160.68144 -160.68144,160.68144c-88.74191,0 -160.68144,-71.93953 -160.68144,-160.68144z" stroke="#48f166"/><path d="M286.8867,326c0,-79.86772 64.74558,-144.6133 144.6133,-144.6133c79.86772,0 144.6133,64.74558 144.6133,144.6133c0,79.86772 -64.74558,144.6133 -144.6133,144.6133c-79.86772,0 -144.6133,-64.74558 -144.6133,-144.6133z" stroke="#48f166"/><path d="M301.34803,326c0,-71.88095 58.27102,-130.15197 130.15197,-130.15197c71.88095,0 130.15197,58.27102 130.15197,130.15197c0,71.88095 -58.27102,130.15197 -130.15197,130.15197c-71.88095,0 -130.15197,-58.27102 -130.15197,-130.15197z" stroke="#48f166"/><path d="M314.36323,326c0,-64.69285 52.44392,-117.13677 117.13677,-117.13677c64.69285,0 117.13677,52.44392 117.13677,117.13677c0,64.69285 -52.44392,117.13677 -117.13677,117.13677c-64.69285,0 -117.13677,-52.44392 -117.13677,-117.13677z" stroke="#48f166"/><path d="M326.07691,326c0,-58.22357 47.19953,-105.42309 105.42309,-105.42309c58.22357,0 105.42309,47.19953 105.42309,105.42309c0,58.22357 -47.19953,105.42309 -105.42309,105.42309c-58.22357,0 -105.42309,-47.19953 -105.42309,-105.42309z" stroke="#48f166"/><path d="M336.61922,326c0,-52.40121 42.47957,-94.88078 94.88078,-94.88078c52.40121,0 94.88078,42.47957 94.88078,94.88078c0,52.40121 -42.47957,94.88078 -94.88078,94.88078c-52.40121,0 -94.88078,-42.47957 -94.88078,-94.88078z" stroke="#48f166"/><path d="M346.10729,326c0,-47.16109 38.23162,-85.39271 85.39271,-85.39271c47.16109,0 85.39271,38.23162 85.39271,85.39271c0,47.16109 -38.23162,85.39271 -85.39271,85.39271c-47.16109,0 -85.39271,-38.23162 -85.39271,-85.39271z" stroke="#48f166"/><path d="M354.64656,326c0,-42.44498 34.40845,-76.85344 76.85344,-76.85344c42.44498,0 76.85344,34.40845 76.85344,76.85344c0,42.44498 -34.40845,76.85344 -76.85344,76.85344c-42.44498,0 -76.85344,-34.40845 -76.85344,-76.85344z" stroke="#48f166"/><path d="M362.33191,326c0,-38.20048 30.96761,-69.16809 69.16809,-69.16809c38.20048,0 69.16809,30.96761 69.16809,69.16809c0,38.20048 -30.96761,69.16809 -69.16809,69.16809c-38.20048,0 -69.16809,-30.96761 -69.16809,-69.16809z" stroke="#48f166"/><path d="M369.24872,326c0,-34.38043 27.87085,-62.25128 62.25128,-62.25128c34.38043,0 62.25128,27.87085 62.25128,62.25128c0,34.38043 -27.87085,62.25128 -62.25128,62.25128c-34.38043,0 -62.25128,-27.87085 -62.25128,-62.25128z" stroke="#48f166"/><path d="M375.47385,326c0,-30.94239 25.08376,-56.02615 56.02615,-56.02615c30.94239,0 56.02615,25.08376 56.02615,56.02615c0,30.94239 -25.08376,56.02615 -56.02615,56.02615c-30.94239,0 -56.02615,-25.08376 -56.02615,-56.02615z" stroke="#48f166"/><path d="M381.07646,326c0,-27.84815 22.57539,-50.42354 50.42354,-50.42354c27.84815,0 50.42354,22.57539 50.42354,50.42354c0,27.84815 -22.57539,50.42354 -50.42354,50.42354c-27.84815,0 -50.42354,-22.57539 -50.42354,-50.42354z" stroke="#48f166"/><path d="M386.11882,326c0,-25.06334 20.31785,-45.38118 45.38118,-45.38118c25.06334,0 45.38118,20.31785 45.38118,45.38118c0,25.06334 -20.31785,45.38118 -45.38118,45.38118c-25.06334,0 -45.38118,-20.31785 -45.38118,-45.38118z" stroke="#48f166"/><path d="M390.65693,326c0,-22.557 18.28606,-40.84307 40.84307,-40.84307c22.557,0 40.84307,18.28606 40.84307,40.84307c0,22.557 -18.28606,40.84307 -40.84307,40.84307c-22.557,0 -40.84307,-18.28606 -40.84307,-40.84307z" stroke="#48f166"/><path d="M394.74124,326c0,-20.3013 16.45746,-36.75876 36.75876,-36.75876c20.3013,0 36.75876,16.45746 36.75876,36.75876c0,20.3013 -16.45746,36.75876 -36.75876,36.75876c-20.3013,0 -36.75876,-16.45746 -36.75876,-36.75876z" stroke="#48f166"/><path d="M398.41712,326c0,-18.27117 14.81171,-33.08288 33.08288,-33.08288c18.27117,0 33.08288,14.81171 33.08288,33.08288c0,18.27117 -14.81171,33.08288 -33.08288,33.08288c-18.27117,0 -33.08288,-14.81171 -33.08288,-33.08288z" stroke="#48f166"/><path d="M401.7254,326c0,-16.44406 13.33054,-29.7746 29.7746,-29.7746c16.44406,0 29.7746,13.33054 29.7746,29.7746c0,16.44406 -13.33054,29.7746 -29.7746,29.7746c-16.44406,0 -29.7746,-13.33054 -29.7746,-29.7746z" stroke="#48f166"/><path d="M404.70286,326c0,-14.79965 11.99749,-26.79714 26.79714,-26.79714c14.79965,0 26.79714,11.99749 26.79714,26.79714c0,14.79965 -11.99749,26.79714 -26.79714,26.79714c-14.79965,0 -26.79714,-11.99749 -26.79714,-26.79714z" stroke="#48f166"/><path d="M407.38258,326c0,-13.31968 10.79774,-24.11742 24.11742,-24.11742c13.31968,0 24.11742,10.79774 24.11742,24.11742c0,13.31968 -10.79774,24.11742 -24.11742,24.11742c-13.31968,0 -24.11742,-10.79774 -24.11742,-24.11742z" stroke="#48f166"/><path d="M409.79432,326c0,-11.98772 9.71796,-21.70568 21.70568,-21.70568c11.98772,0 21.70568,9.71796 21.70568,21.70568c0,11.98772 -9.71796,21.70568 -21.70568,21.70568c-11.98772,0 -21.70568,-9.71796 -21.70568,-21.70568z" stroke="#48f166"/><path d="M411.96489,326c0,-10.78894 8.74617,-19.53511 19.53511,-19.53511c10.78894,0 19.53511,8.74617 19.53511,19.53511c0,10.78894 -8.74617,19.53511 -19.53511,19.53511c-10.78894,0 -19.53511,-8.74617 -19.53511,-19.53511z" stroke="#48f166"/><path d="M411.96489,326c0,-10.78894 8.74617,-19.53511 19.53511,-19.53511c10.78894,0 19.53511,8.74617 19.53511,19.53511c0,10.78894 -8.74617,19.53511 -19.53511,19.53511c-10.78894,0 -19.53511,-8.74617 -19.53511,-19.53511z" stroke="#48f166"/></g></svg>