<svg version="1.1" xmlns="http://www.w3.org/2000/svg" xmlns:xlink="http://www.w3.org/1999/xlink" width="863" height="652" viewBox="0,0,863,652"><g fill="none" fill-rule="nonzero" stroke="none" stroke-width="1" stroke-linecap="butt" stroke-linejoin="miter" stroke-miterlimit="10" stroke-dasharray="" stroke-dashoffset="0" font-family="sans-serif" font-weight="normal" font-size="12" text-anchor="start" style="mix-blend-mode: normal"/><g fill="none" fill-rule="nonzero" stroke="#e5bd6f" stroke-width="1" stroke-linecap="butt" stroke-linejoin="miter" stroke-miterlimit="10" stroke-dasharray="" stroke-dashoffset="0" font-family="none" font-weight="none" font-size="none" text-anchor="none" style="mix-blend-mode: normal"><path d="M186.14915,487.60696c0,-12.15026 9.84974,-22 22,-22c12.15026,0 22,9.84974 22,22c0,12.15026 -9.84974,22 -22,22c-12.15026,0 -22,-9.84974 -22,-22z"/><path d="M191.85074,482.1106c0,-13.36529 10.83471,-24.2 24.2,-24.2c13.36529,0 24.2,10.83471 24.2,24.2c0,13.36529 -10.83471,24.2 -24.2,24.2c-13.36529,0 -24.2,-10.83471 -24.2,-24.2z"/><path d="M199.45378,475.32765c0,-14.70182 11.91818,-26.62 26.62,-26.62c14.70182,0 26.62,11.91818 26.62,26.62c0,14.70182 -11.91818,26.62 -26.62,26.62c-14.70182,0 -26.62,-11.91818 -26.62,-26.62z"/><path d="M208.30947,467.7291c0,-16.172 13.11,-29.282 29.282,-29.282c16.172,0 29.282,13.11 29.282,29.282c0,16.172 -13.11,29.282 -29.282,29.282c-16.172,0 -29.282,-13.11 -29.282,-29.282z"/><path d="M217.81104,459.70382c0,-17.7892 14.421,-32.2102 32.2102,-32.2102c17.7892,0 32.2102,14.421 32.2102,32.2102c0,17.7892 -14.421,32.2102 -32.2102,32.2102c-17.7892,0 -32.2102,-14.421 -32.2102,-32.2102z"/><path d="M227.46366,451.54604c0,-19.56812 15.8631,-35.43122 35.43122,-35.43122c19.56812,0 35.43122,15.8631 35.43122,35.43122c0,19.56812 -15.8631,35.43122 -35.43122,35.43122c-19.56812,0 -35.43122,-15.8631 -35.43122,-35.43122z"/><path d="M236.87298,443.45568c0,-21.52493 17.44941,-38.97434 38.97434,-38.97434c21.52493,0 38.97434,17.44941 38.97434,38.97434c0,21.52493 -17.44941,38.97434 -38.97434,38.97434c-21.52493,0 -38.97434,-17.44941 -38.97434,-38.97434z"/><path d="M245.74983,435.57703c0,-23.67743 19.19435,-42.87178 42.87178,-42.87178c23.67743,0 42.87178,19.19435 42.87178,42.87178c0,23.67743 -19.19435,42.87178 -42.87178,42.87178c-23.67743,0 -42.87178,-19.19435 -42.87178,-42.87178z"/><path d="M253.87394,428.00013c0,-26.04517 21.11378,-47.15895 47.15895,-47.15895c26.04517,0 47.15895,21.11378 47.15895,47.15895c0,26.04517 -21.11378,47.15895 -47.15895,47.15895c-26.04517,0 -47.15895,-21.11378 -47.15895,-47.15895z"/><path d="M261.08234,420.78147c0,-28.64969 23.22516,-51.87485 51.87485,-51.87485c28.64969,0 51.87485,23.22516 51.87485,51.87485c0,28.64969 -23.22516,51.87485 -51.87485,51.87485c-28.64969,0 -51.87485,-23.22516 -51.87485,-51.87485z"/><path d="M267.25343,413.95254c0,-31.51466 25.54768,-57.06233 57.06233,-57.06233c31.51466,0 57.06233,25.54768 57.06233,57.06233c0,31.51466 -25.54768,57.06233 -57.06233,57.06233c-31.51466,0 -57.06233,-25.54768 -57.06233,-57.06233z"/><path d="M272.29526,407.527c0,-34.66612 28.10244,-62.76857 62.76857,-62.76857c34.66612,0 62.76857,28.10244 62.76857,62.76857c0,34.66612 -28.10244,62.76857 -62.76857,62.76857c-34.66612,0 -62.76857,-28.10244 -62.76857,-62.76857z"/><path d="M276.13626,401.50593c0,-38.13273 30.91269,-69.04542 69.04542,-69.04542c38.13273,0 69.04542,30.91269 69.04542,69.04542c0,38.13273 -30.91269,69.04542 -69.04542,69.04542c-38.13273,0 -69.04542,-30.91269 -69.04542,-69.04542z"/><path d="M278.71796,395.88164c0,-41.94601 34.00396,-75.94997 75.94997,-75.94997c41.94601,0 75.94997,34.00396 75.94997,75.94997c0,41.94601 -34.00396,75.94997 -75.94997,75.94997c-41.94601,0 -75.94997,-34.00396 -75.94997,-75.94997z"/><path d="M279.98925,390.64056c0,-46.14061 37.40435,-83.54496 83.54496,-83.54496c46.14061,0 83.54496,37.40435 83.54496,83.54496c0,46.14061 -37.40435,83.54496 -83.54496,83.54496c-46.14061,0 -83.54496,-37.40435 -83.54496,-83.54496z"/><path d="M279.90181,385.76531c0,-50.75467 41.14479,-91.89946 91.89946,-91.89946c50.75467,0 91.89946,41.14479 91.89946,91.89946c0,50.75467 -41.14479,91.89946 -91.89946,91.89946c-50.75467,0 -91.89946,-41.14479 -91.89946,-91.89946z"/><path d="M278.40639,381.23625c0,-55.83014 45.25927,-101.08941 101.08941,-101.08941c55.83014,0 101.08941,45.25927 101.08941,101.08941c0,55.83014 -45.25927,101.08941 -101.08941,101.08941c-55.83014,0 -101.08941,-45.25927 -101.08941,-101.08941z"/><path d="M275.44984,377.03265c0,-61.41315 49.7852,-111.19835 111.19835,-111.19835c61.41315,0 111.19835,49.7852 111.19835,111.19835c0,61.41315 -49.7852,111.19835 -111.19835,111.19835c-61.41315,0 -111.19835,-49.7852 -111.19835,-111.19835z"/><path d="M270.9726,373.13349c0,-67.55447 54.76371,-122.31818 122.31818,-122.31818c67.55447,0 122.31818,54.76371 122.31818,122.31818c0,67.55447 -54.76371,122.31818 -122.31818,122.31818c-67.55447,0 -122.31818,-54.76371 -122.31818,-122.31818z"/><path d="M264.90662,369.51801c0,-74.30991 60.24009,-134.55 134.55,-134.55c74.30991,0 134.55,60.24009 134.55,134.55c0,74.30991 -60.24009,134.55 -134.55,134.55c-74.30991,0 -134.55,-60.24009 -134.55,-134.55z"/><path d="M257.17355,366.16615c0,-81.7409 66.2641,-148.005 148.005,-148.005c81.7409,0 148.005,66.2641 148.005,148.005c0,81.7409 -66.2641,148.005 -148.005,148.005c-81.7409,0 -148.005,-66.2641 -148.005,-148.005z"/><path d="M247.68302,363.0588c0,-89.91499 72.8905,-162.8055 162.8055,-162.8055c89.91499,0 162.8055,72.8905 162.8055,162.8055c0,89.91499 -72.8905,162.8055 -162.8055,162.8055c-89.91499,0 -162.8055,-72.8905 -162.8055,-162.8055z"/><path d="M236.33117,360.17792c0,-98.90649 80.17956,-179.08605 179.08605,-179.08605c98.90649,0 179.08605,80.17956 179.08605,179.08605c0,98.90649 -80.17956,179.08605 -179.08605,179.08605c-98.90649,0 -179.08605,-80.17956 -179.08605,-179.08605z"/><path d="M222.99909,357.50666c0,-108.79714 88.19751,-196.99465 196.99465,-196.99465c108.79714,0 196.99465,88.19751 196.99465,196.99465c0,108.79714 -88.19751,196.99465 -196.99465,196.99465c-108.79714,0 -196.99465,-88.19751 -196.99465,-196.99465z"/><path d="M207.55136,355.02936c0,-119.67686 97.01726,-216.69412 216.69412,-216.69412c119.67686,0 216.69412,97.01726 216.69412,216.69412c0,119.67686 -97.01726,216.69412 -216.69412,216.69412c-119.67686,0 -216.69412,-97.01726 -216.69412,-216.69412z"/><path d="M189.83448,352.73154c0,-131.64454 106.71899,-238.36353 238.36353,-238.36353c131.64454,0 238.36353,106.71899 238.36353,238.36353c0,131.64454 -106.71899,238.36353 -238.36353,238.36353c-131.64454,0 -238.36353,-106.71899 -238.36353,-238.36353z"/><path d="M169.67521,350.59987c0,-144.809 117.39089,-262.19988 262.19988,-262.19988c144.809,0 262.19988,117.39089 262.19988,262.19988c0,144.809 -117.39089,262.19988 -262.19988,262.19988c-144.809,0 -262.19988,-117.39089 -262.19988,-262.19988z"/><path d="M146.87886,348.6221c0,-159.2899 129.12998,-288.41987 288.41987,-288.41987c159.2899,0 288.41987,129.12998 288.41987,288.41987c0,159.2899 -129.12998,288.41987 -288.41987,288.41987c-159.2899,0 -288.41987,-129.12998 -288.41987,-288.41987z"/><path d="M178.91132,346.78702c0,-143.36091 116.21698,-259.57788 259.57788,-259.57788c143.36091,0 259.57788,116.21698 259.57788,259.57788c0,143.36091 -116.21698,259.57788 -259.57788,259.57788c-143.36091,0 -259.57788,-116.21698 -259.57788,-259.57788z"/><path d="M207.84506,345.08433c0,-129.02482 104.59528,-233.6201 233.6201,-233.6201c129.02482,0 233.6201,104.59528 233.6201,233.6201c0,129.02482 -104.59528,233.6201 -233.6201,233.6201c-129.02482,0 -233.6201,-104.59528 -233.6201,-233.6201z"/><path d="M233.98563,343.50465c0,-116.12233 94.13575,-210.25809 210.25809,-210.25809c116.12233,0 210.25809,94.13575 210.25809,210.25809c0,116.12233 -94.13575,210.25809 -210.25809,210.25809c-116.12233,0 -210.25809,-94.13575 -210.25809,-210.25809z"/><path d="M257.60829,342.03938c0,-104.5101 84.72218,-189.23228 189.23228,-189.23228c104.5101,0 189.23228,84.72218 189.23228,189.23228c0,104.5101 -84.72218,189.23228 -189.23228,189.23228c-104.5101,0 -189.23228,-84.72218 -189.23228,-189.23228z"/><path d="M278.96101,340.68066c0,-94.05909 76.24996,-170.30905 170.30905,-170.30905c94.05909,0 170.30905,76.24996 170.30905,170.30905c0,94.05909 -76.24996,170.30905 -170.30905,170.30905c-94.05909,0 -170.30905,-76.24996 -170.30905,-170.30905z"/><path d="M298.26718,339.42129c0,-84.65318 68.62496,-153.27815 153.27815,-153.27815c84.65318,0 153.27815,68.62496 153.27815,153.27815c0,84.65318 -68.62496,153.27815 -153.27815,153.27815c-84.65318,0 -153.27815,-68.62496 -153.27815,-153.27815z"/><path d="M315.72801,338.25469c0,-76.18786 61.76247,-137.95033 137.95033,-137.95033c76.18786,0 137.95033,61.76247 137.95033,137.95033c0,76.18786 -61.76247,137.95033 -137.95033,137.95033c-76.18786,0 -137.95033,-61.76247 -137.95033,-137.95033z"/><path d="M331.52479,337.17484c0,-68.56908 55.58622,-124.1553 124.1553,-124.1553c68.56908,0 124.1553,55.58622 124.1553,124.1553c0,68.56908 -55.58622,124.1553 -124.1553,124.1553c-68.56908,0 -124.1553,-55.58622 -124.1553,-124.1553z"/><path d="M345.82078,336.17618c0,-61.71217 50.0276,-111.73977 111.73977,-111.73977c61.71217,0 111.73977,50.0276 111.73977,111.73977c0,61.71217 -50.0276,111.73977 -111.73977,111.73977c-61.71217,0 -111.73977,-50.0276 -111.73977,-111.73977z"/><path d="M358.76309,335.25366c0,-55.54095 45.02484,-100.56579 100.56579,-100.56579c55.54095,0 100.56579,45.02484 100.56579,100.56579c0,55.54095 -45.02484,100.56579 -100.56579,100.56579c-55.54095,0 -100.56579,-45.02484 -100.56579,-100.56579z"/><path d="M370.48422,334.40258c0,-49.98686 40.52235,-90.50921 90.50921,-90.50921c49.98686,0 90.50921,40.52235 90.50921,90.50921c0,49.98686 -40.52235,90.50921 -90.50921,90.50921c-49.98686,0 -90.50921,-40.52235 -90.50921,-90.50921z"/><path d="M381.10354,333.61865c0,-44.98817 36.47012,-81.45829 81.45829,-81.45829c44.98817,0 81.45829,36.47012 81.45829,81.45829c0,44.98817 -36.47012,81.45829 -81.45829,81.45829c-44.98817,0 -81.45829,-36.47012 -81.45829,-81.45829z"/><path d="M390.7286,332.89789c0,-40.48935 32.82311,-73.31246 73.31246,-73.31246c40.48935,0 73.31246,32.82311 73.31246,73.31246c0,40.48935 -32.82311,73.31246 -73.31246,73.31246c-40.48935,0 -73.31246,-32.82311 -73.31246,-73.31246z"/><path d="M399.45629,332.23664c0,-36.44042 29.5408,-65.98122 65.98122,-65.98122c36.44042,0 65.98122,29.5408 65.98122,65.98122c0,36.44042 -29.5408,65.98122 -65.98122,65.98122c-36.44042,0 -65.98122,-29.5408 -65.98122,-65.98122z"/><path d="M407.37391,331.63149c0,-32.79638 26.58672,-59.38309 59.38309,-59.38309c32.79638,0 59.38309,26.58672 59.38309,59.38309c0,32.79638 -26.58672,59.38309 -59.38309,59.38309c-32.79638,0 -59.38309,-26.58672 -59.38309,-59.38309z"/><path d="M414.56012,331.0793c0,-29.51674 23.92805,-53.44478 53.44478,-53.44478c29.51674,0 53.44478,23.92805 53.44478,53.44478c0,29.51674 -23.92805,53.44478 -53.44478,53.44478c-29.51674,0 -53.44478,-23.92805 -53.44478,-53.44478z"/><path d="M421.08581,330.57714c0,-26.56507 21.53524,-48.10031 48.10031,-48.10031c26.56507,0 48.10031,21.53524 48.10031,48.10031c0,26.56507 -21.53524,48.10031 -48.10031,48.10031c-26.56507,0 -48.10031,-21.53524 -48.10031,-48.10031z"/><path d="M427.01487,330.1223c0,-23.90856 19.38172,-43.29028 43.29028,-43.29028c23.90856,0 43.29028,19.38172 43.29028,43.29028c0,23.90856 -19.38172,43.29028 -43.29028,43.29028c-23.90856,0 -43.29028,-19.38172 -43.29028,-43.29028z"/><path d="M432.40487,329.71223c0,-21.5177 17.44354,-38.96125 38.96125,-38.96125c21.5177,0 38.96125,17.44354 38.96125,38.96125c0,21.5177 -17.44354,38.96125 -38.96125,38.96125c-21.5177,0 -38.96125,-17.44354 -38.96125,-38.96125z"/><path d="M437.30771,329.34459c0,-19.36593 15.69919,-35.06512 35.06512,-35.06512c19.36593,0 35.06512,15.69919 35.06512,35.06512c0,19.36593 -15.69919,35.06512 -35.06512,35.06512c-19.36593,0 -35.06512,-15.69919 -35.06512,-35.06512z"/><path d="M441.80484,328.97133c0,-17.42934 14.12927,-31.55861 31.55861,-31.55861c17.42934,0 31.55861,14.12927 31.55861,31.55861c0,17.42934 -14.12927,31.55861 -31.55861,31.55861c-17.42934,0 -31.55861,-14.12927 -31.55861,-31.55861z"/><path d="M445.78983,328.5874c0,-15.68641 12.71634,-28.40275 28.40275,-28.40275c15.68641,0 28.40275,12.71634 28.40275,28.40275c0,15.68641 -12.71634,28.40275 -28.40275,28.40275c-15.68641,0 -28.40275,-12.71634 -28.40275,-28.40275z"/><path d="M446.79844,328.04604c0,-15.68641 12.71634,-28.40275 28.40275,-28.40275c15.68641,0 28.40275,12.71634 28.40275,28.40275c0,15.68641 -12.71634,28.40275 -28.40275,28.40275c-15.68641,0 -28.40275,-12.71634 -28.40275,-28.40275z"/></g></svg>