<svg version="1.1" xmlns="http://www.w3.org/2000/svg" xmlns:xlink="http://www.w3.org/1999/xlink" width="863" height="652" viewBox="0,0,863,652"><g fill="none" fill-rule="nonzero" stroke="none" stroke-width="1" stroke-linecap="butt" stroke-linejoin="miter" stroke-miterlimit="10" stroke-dasharray="" stroke-dashoffset="0" font-family="sans-serif" font-weight="normal" font-size="12" text-anchor="start" style="mix-blend-mode: normal"/><g fill="none" fill-rule="nonzero" stroke="none" stroke-width="1" stroke-linecap="butt" stroke-linejoin="miter" stroke-miterlimit="10" stroke-dasharray="" stroke-dashoffset="0" font-family="none" font-weight="none" font-size="none" text-anchor="none" style="mix-blend-mode: normal"><path d="M617.05257,437.57626c0,-9.94113 8.05887,-18 18,-18c9.94113,0 18,8.05887 18,18c0,9.94113 -8.05887,18 -18,18c-9.94113,0 -18,-8.05887 -18,-18z" stroke="#bf598b"/><path d="M623.14865,418.39207c0,-8.94701 7.25299,-16.2 16.2,-16.2c8.94701,0 16.2,7.25299 16.2,16.2c0,8.94701 -7.25299,16.2 -16.2,16.2c-8.94701,0 -16.2,-7.25299 -16.2,-16.2z" stroke="#bf598b"/><path d="M628.03974,400.12942c0,-8.05231 6.52769,-14.58 14.58,-14.58c8.05231,0 14.58,6.52769 14.58,14.58c0,8.05231 -6.52769,14.58 -14.58,14.58c-8.05231,0 -14.58,-6.52769 -14.58,-14.58z" stroke="#bf598b"/><path d="M631.77495,383.21817c0,-7.24708 5.87492,-13.122 13.122,-13.122c7.24708,0 13.122,5.87492 13.122,13.122c0,7.24708 -5.87492,13.122 -13.122,13.122c-7.24708,0 -13.122,-5.87492 -13.122,-13.122z" stroke="#bf598b"/><path d="M634.46769,367.77956c0,-6.52237 5.28743,-11.8098 11.8098,-11.8098c6.52237,0 11.8098,5.28743 11.8098,11.8098c0,6.52237 -5.28743,11.8098 -11.8098,11.8098c-6.52237,0 -11.8098,-5.28743 -11.8098,-11.8098z" stroke="#bf598b"/><path d="M636.23721,353.79893c0,-5.87014 4.75868,-10.62882 10.62882,-10.62882c5.87014,0 10.62882,4.75868 10.62882,10.62882c0,5.87014 -4.75868,10.62882 -10.62882,10.62882c-5.87014,0 -10.62882,-4.75868 -10.62882,-10.62882z" stroke="#bf598b"/><path d="M637.18879,341.20704c0,-5.28312 4.28282,-9.56594 9.56594,-9.56594c5.28312,0 9.56594,4.28282 9.56594,9.56594c0,5.28312 -4.28282,9.56594 -9.56594,9.56594c-5.28312,0 -9.56594,-4.28282 -9.56594,-9.56594z" stroke="#bf598b"/><path d="M637.4108,329.91621c0,-4.75481 3.85453,-8.60934 8.60934,-8.60934c4.75481,0 8.60934,3.85453 8.60934,8.60934c0,4.75481 -3.85453,8.60934 -8.60934,8.60934c-4.75481,0 -8.60934,-3.85453 -8.60934,-8.60934z" stroke="#bf598b"/><path d="M636.97766,319.83526c0,-4.27933 3.46908,-7.74841 7.74841,-7.74841c4.27933,0 7.74841,3.46908 7.74841,7.74841c0,4.27933 -3.46908,7.74841 -7.74841,7.74841c-4.27933,0 -7.74841,-3.46908 -7.74841,-7.74841z" stroke="#bf598b"/><path d="M635.95374,310.87516c0,-3.8514 3.12217,-6.97357 6.97357,-6.97357c3.8514,0 6.97357,3.12217 6.97357,6.97357c0,3.8514 -3.12217,6.97357 -6.97357,6.97357c-3.8514,0 -6.97357,-3.12217 -6.97357,-6.97357z" stroke="#bf598b"/><path d="M634.39652,302.9508c0,-3.46626 2.80996,-6.27621 6.27621,-6.27621c3.46626,0 6.27621,2.80996 6.27621,6.27621c0,3.46626 -2.80996,6.27621 -6.27621,6.27621c-3.46626,0 -6.27621,-2.80996 -6.27621,-6.27621z" stroke="#bf598b"/><path d="M632.35874,295.98155c0,-3.11963 2.52896,-5.64859 5.64859,-5.64859c3.11963,0 5.64859,2.52896 5.64859,5.64859c0,3.11963 -2.52896,5.64859 -5.64859,5.64859c-3.11963,0 -5.64859,-2.52896 -5.64859,-5.64859z" stroke="#bf598b"/><path d="M629.88958,289.89123c0,-2.80767 2.27606,-5.08373 5.08373,-5.08373c2.80767,0 5.08373,2.27606 5.08373,5.08373c0,2.80767 -2.27606,5.08373 -5.08373,5.08373c-2.80767,0 -5.08373,-2.27606 -5.08373,-5.08373z" stroke="#bf598b"/><path d="M627.03529,284.60809c0,-2.5269 2.04846,-4.57536 4.57536,-4.57536c2.5269,0 4.57536,2.04846 4.57536,4.57536c0,2.5269 -2.04846,4.57536 -4.57536,4.57536c-2.5269,0 -4.57536,-2.04846 -4.57536,-4.57536z" stroke="#bf598b"/><path d="M623.83949,280.06472c0,-2.27421 1.84361,-4.11782 4.11782,-4.11782c2.27421,0 4.11782,1.84361 4.11782,4.11782c0,2.27421 -1.84361,4.11782 -4.11782,4.11782c-2.27421,0 -4.11782,-1.84361 -4.11782,-4.11782z" stroke="#bf598b"/><path d="M620.34333,276.19794c0,-2.04679 1.65925,-3.70604 3.70604,-3.70604c2.04679,0 3.70604,1.65925 3.70604,3.70604c0,2.04679 -1.65925,3.70604 -3.70604,3.70604c-2.04679,0 -3.70604,-1.65925 -3.70604,-3.70604z" stroke="#bf598b"/><path d="M616.58527,272.94884c0,-1.84211 1.49333,-3.33544 3.33544,-3.33544c1.84211,0 3.33544,1.49333 3.33544,3.33544c0,1.84211 -1.49333,3.33544 -3.33544,3.33544c-1.84211,0 -3.33544,-1.49333 -3.33544,-3.33544z" stroke="#bf598b"/><path d="M611.93397,270.26265c0,-2.02632 1.64266,-3.66898 3.66898,-3.66898c2.02632,0 3.66898,1.64266 3.66898,3.66898c0,2.02632 -1.64266,3.66898 -3.66898,3.66898c-2.02632,0 -3.66898,-1.64266 -3.66898,-3.66898z" stroke="#bf598b"/><path d="M605.87892,268.08858c0,-2.89764 2.349,-5.24664 5.24664,-5.24664c2.89764,0 5.24664,2.349 5.24664,5.24664c0,2.89764 -2.349,5.24664 -5.24664,5.24664c-2.89764,0 -5.24664,-2.349 -5.24664,-5.24664z" stroke="#e2badb"/><path d="M601.74609,266.37965c0,-2.63422 2.13546,-4.76967 4.76967,-4.76967c2.63422,0 4.76967,2.13546 4.76967,4.76967c0,2.63422 -2.13546,4.76967 -4.76967,4.76967c-2.63422,0 -4.76967,-2.13546 -4.76967,-4.76967z" stroke="#e2badb"/><path d="M596.02729,265.09254c0,-3.1874 2.5839,-5.77131 5.77131,-5.77131c3.1874,0 5.77131,2.5839 5.77131,5.77131c0,3.1874 -2.5839,5.77131 -5.77131,5.77131c-3.1874,0 -5.77131,-2.5839 -5.77131,-5.77131z" stroke="#e2badb"/><path d="M590.64848,264.1874c0,-3.50614 2.84229,-6.34844 6.34844,-6.34844c3.50614,0 6.34844,2.84229 6.34844,6.34844c0,3.50614 -2.84229,6.34844 -6.34844,6.34844c-3.50614,0 -6.34844,-2.84229 -6.34844,-6.34844z" stroke="#e2badb"/><path d="M585.14828,263.62759c0,-3.85676 3.12652,-6.98328 6.98328,-6.98328c3.85676,0 6.98328,3.12652 6.98328,6.98328c0,3.85676 -3.12652,6.98328 -6.98328,6.98328c-3.85676,0 -6.98328,-3.12652 -6.98328,-6.98328z" stroke="#e2badb"/><path d="M579.53974,263.3795c0,-4.24243 3.43917,-7.68161 7.68161,-7.68161c4.24243,0 7.68161,3.43917 7.68161,7.68161c0,4.24243 -3.43917,7.68161 -7.68161,7.68161c-4.24243,0 -7.68161,-3.43917 -7.68161,-7.68161z" stroke="#e2badb"/><path d="M573.83353,263.41236c0,-4.66668 3.78309,-8.44977 8.44977,-8.44977c4.66668,0 8.44977,3.78309 8.44977,8.44977c0,4.66668 -3.78309,8.44977 -8.44977,8.44977c-4.66668,0 -8.44977,-3.78309 -8.44977,-8.44977z" stroke="#e2badb"/><path d="M568.03793,263.69796c0,-5.13335 4.1614,-9.29475 9.29475,-9.29475c5.13335,0 9.29475,4.1614 9.29475,9.29475c0,5.13335 -4.1614,9.29475 -9.29475,9.29475c-5.13335,0 -9.29475,-4.1614 -9.29475,-9.29475z" stroke="#e2badb"/><path d="M562.1589,264.21053c0,-5.64668 4.57754,-10.22422 10.22422,-10.22422c5.64668,0 10.22422,4.57754 10.22422,10.22422c0,5.64668 -4.57754,10.22422 -10.22422,10.22422c-5.64668,0 -10.22422,-4.57754 -10.22422,-10.22422z" stroke="#e2badb"/><path d="M556.20019,264.92649c0,-6.21135 5.03529,-11.24664 11.24664,-11.24664c6.21135,0 11.24664,5.03529 11.24664,11.24664c0,6.21135 -5.03529,11.24664 -11.24664,11.24664c-6.21135,0 -11.24664,-5.03529 -11.24664,-11.24664z" stroke="#e2badb"/><path d="M550.16327,265.8243c0,-6.83248 5.53882,-12.37131 12.37131,-12.37131c6.83248,0 12.37131,5.53882 12.37131,12.37131c0,6.83248 -5.53882,12.37131 -12.37131,12.37131c-6.83248,0 -12.37131,-5.53882 -12.37131,-12.37131z" stroke="#e2badb"/><path d="M544.04748,266.88429c0,-7.51573 6.0927,-13.60844 13.60844,-13.60844c7.51573,0 13.60844,6.0927 13.60844,13.60844c0,7.51573 -6.0927,13.60844 -13.60844,13.60844c-7.51573,0 -13.60844,-6.0927 -13.60844,-13.60844z" stroke="#e2badb"/><path d="M537.84995,268.08848c0,-8.26731 6.70197,-14.96928 14.96928,-14.96928c8.26731,0 14.96928,6.70197 14.96928,14.96928c0,8.26731 -6.70197,14.96928 -14.96928,14.96928c-8.26731,0 -14.96928,-6.70197 -14.96928,-14.96928z" stroke="#e2badb"/><path d="M531.56564,269.42049c0,-9.09404 7.37217,-16.46621 16.46621,-16.46621c9.09404,0 16.46621,7.37217 16.46621,16.46621c0,9.09404 -7.37217,16.46621 -16.46621,16.46621c-9.09404,0 -16.46621,-7.37217 -16.46621,-16.46621z" stroke="#e2badb"/><path d="M525.18735,270.86534c0,-10.00344 8.10939,-18.11283 18.11283,-18.11283c10.00344,0 18.11283,8.10939 18.11283,18.11283c0,10.00344 -8.10939,18.11283 -18.11283,18.11283c-10.00344,0 -18.11283,-8.10939 -18.11283,-18.11283z" stroke="#e2badb"/><path d="M518.7056,272.40939c0,-11.00378 8.92033,-19.92411 19.92411,-19.92411c11.00378,0 19.92411,8.92033 19.92411,19.92411c0,11.00378 -8.92033,19.92411 -19.92411,19.92411c-11.00378,0 -19.92411,-8.92033 -19.92411,-19.92411z" stroke="#e2badb"/><path d="M512.10866,274.04016c0,-12.10416 9.81236,-21.91652 21.91652,-21.91652c12.10416,0 21.91652,9.81236 21.91652,21.91652c0,12.10416 -9.81236,21.91652 -21.91652,21.91652c-12.10416,0 -21.91652,-9.81236 -21.91652,-21.91652z" stroke="#e2badb"/><path d="M505.38243,275.74632c0,-13.31458 10.7936,-24.10818 24.10818,-24.10818c13.31458,0 24.10818,10.7936 24.10818,24.10818c0,13.31458 -10.7936,24.10818 -24.10818,24.10818c-13.31458,0 -24.10818,-10.7936 -24.10818,-24.10818z" stroke="#e2badb"/><path d="M498.51036,277.51751c0,-14.64604 11.87296,-26.51899 26.51899,-26.51899c14.64604,0 26.51899,11.87296 26.51899,26.51899c0,14.64604 -11.87296,26.51899 -26.51899,26.51899c-14.64604,0 -26.51899,-11.87296 -26.51899,-26.51899z" stroke="#e2badb"/><path d="M491.47334,279.3443c0,-16.11064 13.06025,-29.17089 29.17089,-29.17089c16.11064,0 29.17089,13.06025 29.17089,29.17089c0,16.11064 -13.06025,29.17089 -29.17089,29.17089c-16.11064,0 -29.17089,-13.06025 -29.17089,-29.17089z" stroke="#e2badb"/><path d="M484.24951,281.21811c0,-17.7217 14.36628,-32.08798 32.08798,-32.08798c17.7217,0 32.08798,14.36628 32.08798,32.08798c0,17.7217 -14.36628,32.08798 -32.08798,32.08798c-17.7217,0 -32.08798,-14.36628 -32.08798,-32.08798z" stroke="#e2badb"/><path d="M476.81417,283.13113c0,-19.49387 15.80291,-35.29678 35.29678,-35.29678c19.49387,0 35.29678,15.80291 35.29678,35.29678c0,19.49387 -15.80291,35.29678 -35.29678,35.29678c-19.49387,0 -35.29678,-15.80291 -35.29678,-35.29678z" stroke="#e2badb"/><path d="M469.13954,285.07625c0,-21.44326 17.3832,-38.82646 38.82646,-38.82646c21.44326,0 38.82646,17.3832 38.82646,38.82646c0,21.44326 -17.3832,38.82646 -38.82646,38.82646c-21.44326,0 -38.82646,-17.3832 -38.82646,-38.82646z" stroke="#e2badb"/><path d="M461.19454,287.04701c0,-23.58759 19.12152,-42.7091 42.7091,-42.7091c23.58759,0 42.7091,19.12152 42.7091,42.7091c0,23.58759 -19.12152,42.7091 -42.7091,42.7091c-23.58759,0 -42.7091,-19.12152 -42.7091,-42.7091z" stroke="#e2badb"/><path d="M452.94455,289.03756c0,-25.94635 21.03367,-46.98001 46.98001,-46.98001c25.94635,0 46.98001,21.03367 46.98001,46.98001c0,25.94635 -21.03367,46.98001 -46.98001,46.98001c-25.94635,0 -46.98001,-21.03367 -46.98001,-46.98001z" stroke="#e2badb"/><path d="M444.35112,291.04258c0,-28.54098 23.13704,-51.67801 51.67801,-51.67801c28.54098,0 51.67801,23.13704 51.67801,51.67801c0,28.54098 -23.13704,51.67801 -51.67801,51.67801c-28.54098,0 -51.67801,-23.13704 -51.67801,-51.67801z" stroke="#e2badb"/><path d="M435.37167,293.05725c0,-31.39508 25.45074,-56.84582 56.84582,-56.84582c31.39508,0 56.84582,25.45074 56.84582,56.84582c0,31.39508 -25.45074,56.84582 -56.84582,56.84582c-31.39508,0 -56.84582,-25.45074 -56.84582,-56.84582z" stroke="#e2badb"/><path d="M425.9591,295.07723c0,-34.53459 27.99581,-62.5304 62.5304,-62.5304c34.53459,0 62.5304,27.99581 62.5304,62.5304c0,34.53459 -27.99581,62.5304 -62.5304,62.5304c-34.53459,0 -62.5304,-27.99581 -62.5304,-62.5304z" stroke="#e2badb"/><path d="M416.06141,297.09857c0,-37.98804 30.79539,-68.78344 68.78344,-68.78344c37.98804,0 68.78344,30.79539 68.78344,68.78344c0,37.98804 -30.79539,68.78344 -68.78344,68.78344c-37.98804,0 -68.78344,-30.79539 -68.78344,-68.78344z" stroke="#e2badb"/><path d="M405.62125,299.11772c0,-41.78685 33.87493,-75.66178 75.66178,-75.66178c41.78685,0 75.66178,33.87493 75.66178,75.66178c0,41.78685 -33.87493,75.66178 -75.66178,75.66178c-41.78685,0 -75.66178,-33.87493 -75.66178,-75.66178z" stroke="#e2badb"/><path d="M409.7078,301.13151c0,-37.60816 30.48744,-68.0956 68.0956,-68.0956c37.60816,0 68.0956,30.48744 68.0956,68.0956c0,37.60816 -30.48744,68.0956 -68.0956,68.0956c-37.60816,0 -68.0956,-30.48744 -68.0956,-68.0956z" stroke="#e2badb"/><path d="M413.11913,303.13705c0,-33.84735 27.4387,-61.28604 61.28604,-61.28604c33.84735,0 61.28604,27.4387 61.28604,61.28604c0,33.84735 -27.4387,61.28604 -61.28604,61.28604c-33.84735,0 -61.28604,-27.4387 -61.28604,-61.28604z" stroke="#e2badb"/><path d="M415.92997,305.13177c0,-30.46261 24.69483,-55.15744 55.15744,-55.15744c30.46261,0 55.15744,24.69483 55.15744,55.15744c0,30.46261 -24.69483,55.15744 -55.15744,55.15744c-30.46261,0 -55.15744,-24.69483 -55.15744,-55.15744z" stroke="#e2badb"/><path d="M418.2074,307.1134c0,-27.41635 22.22534,-49.64169 49.64169,-49.64169c27.41635,0 49.64169,22.22534 49.64169,49.64169c0,27.41635 -22.22534,49.64169 -49.64169,49.64169c-27.41635,0 -49.64169,-22.22534 -49.64169,-49.64169z" stroke="#e2badb"/><path d="M420.01162,309.07987c0,-24.67472 20.00281,-44.67753 44.67753,-44.67753c24.67472,0 44.67753,20.00281 44.67753,44.67753c0,24.67472 -20.00281,44.67753 -44.67753,44.67753c-24.67472,0 -44.67753,-20.00281 -44.67753,-44.67753z" stroke="#e2badb"/><path d="M421.3966,311.02938c0,-22.20724 18.00253,-40.20977 40.20977,-40.20977c22.20724,0 40.20977,18.00253 40.20977,40.20977c0,22.20724 -18.00253,40.20977 -40.20977,40.20977c-22.20724,0 -40.20977,-18.00253 -40.20977,-40.20977z" stroke="#e2badb"/><path d="M422.41075,312.96032c0,-19.98652 16.20228,-36.1888 36.1888,-36.1888c19.98652,0 36.1888,16.20228 36.1888,36.1888c0,19.98652 -16.20228,36.1888 -36.1888,36.1888c-19.98652,0 -36.1888,-16.20228 -36.1888,-36.1888z" stroke="#e2badb"/><path d="M423.09745,314.87129c0,-17.98787 14.58205,-32.56992 32.56992,-32.56992c17.98787,0 32.56992,14.58205 32.56992,32.56992c0,17.98787 -14.58205,32.56992 -32.56992,32.56992c-17.98787,0 -32.56992,-14.58205 -32.56992,-32.56992z" stroke="#e2badb"/><path d="M423.49559,316.76106c0,-16.18908 13.12384,-29.31292 29.31292,-29.31292c16.18908,0 29.31292,13.12384 29.31292,29.31292c0,16.18908 -13.12384,29.31292 -29.31292,29.31292c-16.18908,0 -29.31292,-13.12384 -29.31292,-29.31292z" stroke="#e2badb"/><path d="M423.63999,318.62856c0,-14.57017 11.81146,-26.38163 26.38163,-26.38163c14.57017,0 26.38163,11.81146 26.38163,26.38163c0,14.57017 -11.81146,26.38163 -26.38163,26.38163c-14.57017,0 -26.38163,-11.81146 -26.38163,-26.38163z" stroke="#e2badb"/><path d="M423.56183,320.47286c0,-13.11316 10.63031,-23.74347 23.74347,-23.74347c13.11316,0 23.74347,10.63031 23.74347,23.74347c0,13.11316 -10.63031,23.74347 -23.74347,23.74347c-13.11316,0 -23.74347,-10.63031 -23.74347,-23.74347z" stroke="#e2badb"/><path d="M423.28903,322.29318c0,-11.80184 9.56728,-21.36912 21.36912,-21.36912c11.80184,0 21.36912,9.56728 21.36912,21.36912c0,11.80184 -9.56728,21.36912 -21.36912,21.36912c-11.80184,0 -21.36912,-9.56728 -21.36912,-21.36912z" stroke="#e2badb"/><path d="M422.84655,324.08887c0,-10.62166 8.61055,-19.23221 19.23221,-19.23221c10.62166,0 19.23221,8.61055 19.23221,19.23221c0,10.62166 -8.61055,19.23221 -19.23221,19.23221c-10.62166,0 -19.23221,-8.61055 -19.23221,-19.23221z" stroke="#e2badb"/><path d="M422.25671,325.85936c0,-9.55949 7.7495,-17.30899 17.30899,-17.30899c9.55949,0 17.30899,7.7495 17.30899,17.30899c0,9.55949 -7.7495,17.30899 -17.30899,17.30899c-9.55949,0 -17.30899,-7.7495 -17.30899,-17.30899z" stroke="#e2badb"/><path d="M421.53945,327.60423c0,-8.60354 6.97455,-15.57809 15.57809,-15.57809c8.60354,0 15.57809,6.97455 15.57809,15.57809c0,8.60354 -6.97455,15.57809 -15.57809,15.57809c-8.60354,0 -15.57809,-6.97455 -15.57809,-15.57809z" stroke="#e2badb"/><path d="M420.71259,329.32311c0,-7.74319 6.27709,-14.02028 14.02028,-14.02028c7.74319,0 14.02028,6.27709 14.02028,14.02028c0,7.74319 -6.27709,14.02028 -14.02028,14.02028c-7.74319,0 -14.02028,-6.27709 -14.02028,-14.02028z" stroke="#e2badb"/><path d="M419.79202,331.01574c0,-6.96887 5.64938,-12.61825 12.61825,-12.61825c6.96887,0 12.61825,5.64938 12.61825,12.61825c0,6.96887 -5.64938,12.61825 -12.61825,12.61825c-6.96887,0 -12.61825,-5.64938 -12.61825,-12.61825z" stroke="#e2badb"/><path d="M418.79192,332.68194c0,-6.27198 5.08445,-11.35643 11.35643,-11.35643c6.27198,0 11.35643,5.08445 11.35643,11.35643c0,6.27198 -5.08445,11.35643 -11.35643,11.35643c-6.27198,0 -11.35643,-5.08445 -11.35643,-11.35643z" stroke="#e2badb"/><path d="M417.7249,334.32158c0,-5.64478 4.576,-10.22078 10.22078,-10.22078c5.64478,0 10.22078,4.576 10.22078,10.22078c0,5.64478 -4.576,10.22078 -10.22078,10.22078c-5.64478,0 -10.22078,-4.576 -10.22078,-10.22078z" stroke="#e2badb"/><path d="M416.60222,335.93461c0,-5.08031 4.1184,-9.19871 9.19871,-9.19871c5.08031,0 9.19871,4.1184 9.19871,9.19871c0,5.08031 -4.1184,9.19871 -9.19871,9.19871c-5.08031,0 -9.19871,-4.1184 -9.19871,-9.19871z" stroke="#e2badb"/><path d="M415.43386,337.52104c0,-4.57227 3.70656,-8.27884 8.27884,-8.27884c4.57227,0 8.27884,3.70656 8.27884,8.27884c0,4.57227 -3.70656,8.27884 -8.27884,8.27884c-4.57227,0 -8.27884,-3.70656 -8.27884,-8.27884z" stroke="#e2badb"/><path d="M414.2287,339.08092c0,-4.11505 3.3359,-7.45095 7.45095,-7.45095c4.11505,0 7.45095,3.3359 7.45095,7.45095c0,4.11505 -3.3359,7.45095 -7.45095,7.45095c-4.11505,0 -7.45095,-3.3359 -7.45095,-7.45095z" stroke="#e2badb"/><path d="M412.99463,340.61435c0,-3.70354 3.00231,-6.70586 6.70586,-6.70586c3.70354,0 6.70586,3.00231 6.70586,6.70586c0,3.70354 -3.00231,6.70586 -6.70586,6.70586c-3.70354,0 -6.70586,-3.00231 -6.70586,-6.70586z" stroke="#e2badb"/><path d="M411.7386,342.12148c0,-3.33319 2.70208,-6.03527 6.03527,-6.03527c3.33319,0 6.03527,2.70208 6.03527,6.03527c0,3.33319 -2.70208,6.03527 -6.03527,6.03527c-3.33319,0 -6.03527,-2.70208 -6.03527,-6.03527z" stroke="#e2badb"/><path d="M410.46681,343.60249c0,-2.99987 2.43187,-5.43174 5.43174,-5.43174c2.99987,0 5.43174,2.43187 5.43174,5.43174c0,2.99987 -2.43187,5.43174 -5.43174,5.43174c-2.99987,0 -5.43174,-2.43187 -5.43174,-5.43174z" stroke="#e2badb"/><path d="M409.18469,345.0576c0,-2.69988 2.18869,-4.88857 4.88857,-4.88857c2.69988,0 4.88857,2.18869 4.88857,4.88857c0,2.69988 -2.18869,4.88857 -4.88857,4.88857c-2.69988,0 -4.88857,-2.18869 -4.88857,-4.88857z" stroke="#e2badb"/><path d="M407.89705,346.48705c0,-2.42989 1.96982,-4.39971 4.39971,-4.39971c2.42989,0 4.39971,1.96982 4.39971,4.39971c0,2.42989 -1.96982,4.39971 -4.39971,4.39971c-2.42989,0 -4.39971,-1.96982 -4.39971,-4.39971z" stroke="#e2badb"/><path d="M406.60812,347.89111c0,-2.1869 1.77284,-3.95974 3.95974,-3.95974c2.1869,0 3.95974,1.77284 3.95974,3.95974c0,2.1869 -1.77284,3.95974 -3.95974,3.95974c-2.1869,0 -3.95974,-1.77284 -3.95974,-3.95974z" stroke="#e2badb"/><path d="M405.32159,349.27007c0,-1.96821 1.59555,-3.56377 3.56377,-3.56377c1.96821,0 3.56377,1.59555 3.56377,3.56377c0,1.96821 -1.59555,3.56377 -3.56377,3.56377c-1.96821,0 -3.56377,-1.59555 -3.56377,-3.56377z" stroke="#e2badb"/><path d="M403.32796,350.62426c0,-2.16504 1.75511,-3.92014 3.92014,-3.92014c2.16504,0 3.92014,1.75511 3.92014,3.92014c0,2.16504 -1.75511,3.92014 -3.92014,3.92014c-2.16504,0 -3.92014,-1.75511 -3.92014,-3.92014z" stroke="#e2badb"/><path d="M400.04917,351.95401c0,-3.096 2.5098,-5.60581 5.60581,-5.60581c3.096,0 5.60581,2.5098 5.60581,5.60581c0,3.096 -2.5098,5.60581 -5.60581,5.60581c-3.096,0 -5.60581,-2.5098 -5.60581,-5.60581z" stroke="#d8141a"/><path d="M399.00866,353.25967c0,-2.81455 2.28164,-5.09619 5.09619,-5.09619c2.81455,0 5.09619,2.28164 5.09619,5.09619c0,2.81455 -2.28164,5.09619 -5.09619,5.09619c-2.81455,0 -5.09619,-2.28164 -5.09619,-5.09619z" stroke="#d8141a"/><path d="M396.43025,354.54159c0,-3.4056 2.76079,-6.16639 6.16639,-6.16639c3.4056,0 6.16639,2.76079 6.16639,6.16639c0,3.4056 -2.76079,6.16639 -6.16639,6.16639c-3.4056,0 -6.16639,-2.76079 -6.16639,-6.16639z" stroke="#d8141a"/><path d="M394.34628,355.80015c0,-3.74616 3.03686,-6.78303 6.78303,-6.78303c3.74616,0 6.78303,3.03686 6.78303,6.78303c0,3.74616 -3.03686,6.78303 -6.78303,6.78303c-3.74616,0 -6.78303,-3.03686 -6.78303,-6.78303z" stroke="#d8141a"/><path d="M392.24048,357.03574c0,-4.12078 3.34055,-7.46133 7.46133,-7.46133c4.12078,0 7.46133,3.34055 7.46133,7.46133c0,4.12078 -3.34055,7.46133 -7.46133,7.46133c-4.12078,0 -7.46133,-3.34055 -7.46133,-7.46133z" stroke="#d8141a"/><path d="M390.10567,358.24874c0,-4.53286 3.67461,-8.20746 8.20746,-8.20746c4.53286,0 8.20746,3.67461 8.20746,8.20746c0,4.53286 -3.67461,8.20746 -8.20746,8.20746c-4.53286,0 -8.20746,-3.67461 -8.20746,-8.20746z" stroke="#d8141a"/><path d="M387.9341,359.43956c0,-4.98614 4.04207,-9.02821 9.02821,-9.02821c4.98614,0 9.02821,4.04207 9.02821,9.02821c0,4.98614 -4.04207,9.02821 -9.02821,9.02821c-4.98614,0 -9.02821,-4.04207 -9.02821,-9.02821z" stroke="#d8141a"/><path d="M385.71734,360.60858c0,-5.48475 4.44627,-9.93103 9.93103,-9.93103c5.48475,0 9.93103,4.44627 9.93103,9.93103c0,5.48475 -4.44627,9.93103 -9.93103,9.93103c-5.48475,0 -9.93103,-4.44627 -9.93103,-9.93103z" stroke="#d8141a"/><path d="M383.44624,361.75622c0,-6.03323 4.8909,-10.92413 10.92413,-10.92413c6.03323,0 10.92413,4.8909 10.92413,10.92413c0,6.03323 -4.8909,10.92413 -10.92413,10.92413c-6.03323,0 -10.92413,-4.8909 -10.92413,-10.92413z" stroke="#d8141a"/><path d="M381.11088,362.88289c0,-6.63655 5.37999,-12.01654 12.01654,-12.01654c6.63655,0 12.01654,5.37999 12.01654,12.01654c0,6.63655 -5.37999,12.01654 -12.01654,12.01654c-6.63655,0 -12.01654,-5.37999 -12.01654,-12.01654z" stroke="#d8141a"/><path d="M378.70042,363.98898c0,-7.30021 5.91799,-13.2182 13.2182,-13.2182c7.30021,0 13.2182,5.91799 13.2182,13.2182c0,7.30021 -5.91799,13.2182 -13.2182,13.2182c-7.30021,0 -13.2182,-5.91799 -13.2182,-13.2182z" stroke="#d8141a"/><path d="M376.20278,365.07059c0,-8.03023 6.50979,-14.54002 14.54002,-14.54002c8.03023,0 14.54002,6.50979 14.54002,14.54002c0,8.03023 -6.50979,14.54002 -14.54002,14.54002c-8.03023,0 -14.54002,-6.50979 -14.54002,-14.54002z" stroke="#d8141a"/><path d="M373.58849,366.10885c0,-8.83325 7.16077,-15.99402 15.99402,-15.99402c8.83325,0 15.99402,7.16077 15.99402,15.99402c0,8.83325 -7.16077,15.99402 -15.99402,15.99402c-8.83325,0 -15.99402,-7.16077 -15.99402,-15.99402z" stroke="#d8141a"/><path d="M370.86081,367.10231c0,-9.71658 7.87684,-17.59342 17.59342,-17.59342c9.71658,0 17.59342,7.87684 17.59342,17.59342c0,9.71658 -7.87684,17.59342 -17.59342,17.59342c-9.71658,0 -17.59342,-7.87684 -17.59342,-17.59342z" stroke="#d8141a"/><path d="M368.05961,368.10557c0,-10.68824 8.66453,-19.35276 19.35276,-19.35276c10.68824,0 19.35276,8.66453 19.35276,19.35276c0,10.68824 -8.66453,19.35276 -19.35276,19.35276c-10.68824,0 -19.35276,-8.66453 -19.35276,-19.35276z" stroke="#d8141a"/><path d="M365.01003,369.20317c0,-11.75706 9.53098,-21.28804 21.28804,-21.28804c11.75706,0 21.28804,9.53098 21.28804,21.28804c0,11.75706 -9.53098,21.28804 -21.28804,21.28804c-11.75706,0 -21.28804,-9.53098 -21.28804,-21.28804z" stroke="#d8141a"/><path d="M361.59231,370.4325c0,-12.93277 10.48408,-23.41684 23.41684,-23.41684c12.93277,0 23.41684,10.48408 23.41684,23.41684c0,12.93277 -10.48408,23.41684 -23.41684,23.41684c-12.93277,0 -23.41684,-10.48408 -23.41684,-23.41684z" stroke="#d8141a"/><path d="M357.65337,371.72774c0,-14.22604 11.53249,-25.75853 25.75853,-25.75853c14.22604,0 25.75853,11.53249 25.75853,25.75853c0,14.22604 -11.53249,25.75853 -25.75853,25.75853c-14.22604,0 -25.75853,-11.53249 -25.75853,-25.75853z" stroke="#d8141a"/><path d="M356.8938,371.97628c0,-14.22604 11.53249,-25.75853 25.75853,-25.75853c14.22604,0 25.75853,11.53249 25.75853,25.75853c0,14.22604 -11.53249,25.75853 -25.75853,25.75853c-14.22604,0 -25.75853,-11.53249 -25.75853,-25.75853z" stroke="#d8141a"/></g></svg>