<svg version="1.1" xmlns="http://www.w3.org/2000/svg" xmlns:xlink="http://www.w3.org/1999/xlink" width="863" height="652" viewBox="0,0,863,652"><g fill="none" fill-rule="nonzero" stroke="none" stroke-width="1" stroke-linecap="butt" stroke-linejoin="miter" stroke-miterlimit="10" stroke-dasharray="" stroke-dashoffset="0" font-family="sans-serif" font-weight="normal" font-size="12" text-anchor="start" style="mix-blend-mode: normal"/><g fill="none" fill-rule="nonzero" stroke="none" stroke-width="1" stroke-linecap="butt" stroke-linejoin="miter" stroke-miterlimit="10" stroke-dasharray="" stroke-dashoffset="0" font-family="none" font-weight="none" font-size="none" text-anchor="none" style="mix-blend-mode: normal"><path d="M629.13629,558.46651c0,-12.15026 9.84974,-22 22,-22c12.15026,0 22,9.84974 22,22c0,12.15026 -9.84974,22 -22,22c-12.15026,0 -22,-9.84974 -22,-22z" stroke="#691561"/><path d="M630.17739,559.19948c0,-13.36529 10.83471,-24.2 24.2,-24.2c13.36529,0 24.2,10.83471 24.2,24.2c0,13.36529 -10.83471,24.2 -24.2,24.2c-13.36529,0 -24.2,-10.83471 -24.2,-24.2z" stroke="#691561"/><path d="M631.46271,559.50537c0,-14.70182 11.91818,-26.62 26.62,-26.62c14.70182,0 26.62,11.91818 26.62,26.62c0,14.70182 -11.91818,26.62 -26.62,26.62c-14.70182,0 -26.62,-11.91818 -26.62,-26.62z" stroke="#691561"/><path d="M632.56131,559.26464c0,-16.172 13.11,-29.282 29.282,-29.282c16.172,0 29.282,13.11 29.282,29.282c0,16.172 -13.11,29.282 -29.282,29.282c-16.172,0 -29.282,-13.11 -29.282,-29.282z" stroke="#691561"/><path d="M633.11962,558.4372c0,-17.7892 14.421,-32.2102 32.2102,-32.2102c17.7892,0 32.2102,14.421 32.2102,32.2102c0,17.7892 -14.421,32.2102 -32.2102,32.2102c-17.7892,0 -32.2102,-14.421 -32.2102,-32.2102z" stroke="#691561"/><path d="M632.877,557.02857c0,-19.56812 15.8631,-35.43122 35.43122,-35.43122c19.56812,0 35.43122,15.8631 35.43122,35.43122c0,19.56812 -15.8631,35.43122 -35.43122,35.43122c-19.56812,0 -35.43122,-15.8631 -35.43122,-35.43122z" stroke="#691561"/><path d="M631.65626,555.0686c0,-21.52493 17.44941,-38.97434 38.97434,-38.97434c21.52493,0 38.97434,17.44941 38.97434,38.97434c0,21.52493 -17.44941,38.97434 -38.97434,38.97434c-21.52493,0 -38.97434,-17.44941 -38.97434,-38.97434z" stroke="#691561"/><path d="M629.34655,552.59974c0,-23.67743 19.19435,-42.87178 42.87178,-42.87178c23.67743,0 42.87178,19.19435 42.87178,42.87178c0,23.67743 -19.19435,42.87178 -42.87178,42.87178c-23.67743,0 -42.87178,-19.19435 -42.87178,-42.87178z" stroke="#691561"/><path d="M625.88524,549.67035c0,-26.04517 21.11378,-47.15895 47.15895,-47.15895c26.04517,0 47.15895,21.11378 47.15895,47.15895c0,26.04517 -21.11378,47.15895 -47.15895,47.15895c-26.04517,0 -47.15895,-21.11378 -47.15895,-47.15895z" stroke="#691561"/><path d="M621.24348,546.33157c0,-28.64969 23.22516,-51.87485 51.87485,-51.87485c28.64969,0 51.87485,23.22516 51.87485,51.87485c0,28.64969 -23.22516,51.87485 -51.87485,51.87485c-28.64969,0 -51.87485,-23.22516 -51.87485,-51.87485z" stroke="#691561"/><path d="M615.41381,542.63511c0,-31.51466 25.54768,-57.06233 57.06233,-57.06233c31.51466,0 57.06233,25.54768 57.06233,57.06233c0,31.51466 -25.54768,57.06233 -57.06233,57.06233c-31.51466,0 -57.06233,-25.54768 -57.06233,-57.06233z" stroke="#691561"/><path d="M608.39578,538.62824c0,-34.66612 28.10244,-62.76857 62.76857,-62.76857c34.66612,0 62.76857,28.10244 62.76857,62.76857c0,34.66612 -28.10244,62.76857 -62.76857,62.76857c-34.66612,0 -62.76857,-28.10244 -62.76857,-62.76857z" stroke="#691561"/><path d="M600.19839,534.35974c0,-38.13273 30.91269,-69.04542 69.04542,-69.04542c38.13273,0 69.04542,30.91269 69.04542,69.04542c0,38.13273 -30.91269,69.04542 -69.04542,69.04542c-38.13273,0 -69.04542,-30.91269 -69.04542,-69.04542z" stroke="#691561"/><path d="M604.63416,529.87225c0,-34.31946 27.82142,-62.14088 62.14088,-62.14088c34.31946,0 62.14088,27.82142 62.14088,62.14088c0,34.31946 -27.82142,62.14088 -62.14088,62.14088c-34.31946,0 -62.14088,-27.82142 -62.14088,-62.14088z" stroke="#691561"/><path d="M607.89029,525.20354c0,-30.88752 25.03928,-55.92679 55.92679,-55.92679c30.88752,0 55.92679,25.03928 55.92679,55.92679c0,30.88752 -25.03928,55.92679 -55.92679,55.92679c-30.88752,0 -55.92679,-25.03928 -55.92679,-55.92679z" stroke="#691561"/><path d="M610.11006,520.39996c0,-27.79876 22.53535,-50.33411 50.33411,-50.33411c27.79876,0 50.33411,22.53535 50.33411,50.33411c0,27.79876 -22.53535,50.33411 -50.33411,50.33411c-27.79876,0 -50.33411,-22.53535 -50.33411,-50.33411z" stroke="#691561"/><path d="M611.40605,515.48921c0,-25.01889 20.28182,-45.3007 45.3007,-45.3007c25.01889,0 45.3007,20.28182 45.3007,45.3007c0,25.01889 -20.28182,45.3007 -45.3007,45.3007c-25.01889,0 -45.3007,-20.28182 -45.3007,-45.3007z" stroke="#691561"/><path d="M611.88832,510.50096c0,-22.517 18.25363,-40.77063 40.77063,-40.77063c22.517,0 40.77063,18.25363 40.77063,40.77063c0,22.517 -18.25363,40.77063 -40.77063,40.77063c-22.517,0 -40.77063,-18.25363 -40.77063,-40.77063z" stroke="#691561"/><path d="M611.65708,505.4616c0,-20.2653 16.42827,-36.69357 36.69357,-36.69357c20.2653,0 36.69357,16.42827 36.69357,36.69357c0,20.2653 -16.42827,36.69357 -36.69357,36.69357c-20.2653,0 -36.69357,-16.42827 -36.69357,-36.69357z" stroke="#691561"/><path d="M610.80314,500.39444c0,-18.23877 14.78544,-33.02421 33.02421,-33.02421c18.23877,0 33.02421,14.78544 33.02421,33.02421c0,18.23877 -14.78544,33.02421 -33.02421,33.02421c-18.23877,0 -33.02421,-14.78544 -33.02421,-33.02421z" stroke="#691561"/><path d="M609.40848,495.32c0,-16.41489 13.3069,-29.72179 29.72179,-29.72179c16.41489,0 29.72179,13.3069 29.72179,29.72179c0,16.41489 -13.3069,29.72179 -29.72179,29.72179c-16.41489,0 -29.72179,-13.3069 -29.72179,-29.72179z" stroke="#691561"/><path d="M607.54684,490.25622c0,-14.7734 11.97621,-26.74961 26.74961,-26.74961c14.7734,0 26.74961,11.97621 26.74961,26.74961c0,14.7734 -11.97621,26.74961 -26.74961,26.74961c-14.7734,0 -26.74961,-11.97621 -26.74961,-26.74961z" stroke="#691561"/><path d="M605.28436,485.21872c0,-13.29606 10.77859,-24.07465 24.07465,-24.07465c13.29606,0 24.07465,10.77859 24.07465,24.07465c0,13.29606 -10.77859,24.07465 -24.07465,24.07465c-13.29606,0 -24.07465,-10.77859 -24.07465,-24.07465z" stroke="#691561"/><path d="M602.68021,480.22102c0,-11.96646 9.70073,-21.66719 21.66719,-21.66719c11.96646,0 21.66719,9.70073 21.66719,21.66719c0,11.96646 -9.70073,21.66719 -21.66719,21.66719c-11.96646,0 -21.66719,-9.70073 -21.66719,-21.66719z" stroke="#691561"/><path d="M599.78721,475.27476c0,-10.76981 8.73066,-19.50047 19.50047,-19.50047c10.76981,0 19.50047,8.73066 19.50047,19.50047c0,10.76981 -8.73066,19.50047 -19.50047,19.50047c-10.76981,0 -19.50047,-8.73066 -19.50047,-19.50047z" stroke="#691561"/><path d="M596.65238,470.38991c0,-9.69283 7.85759,-17.55042 17.55042,-17.55042c9.69283,0 17.55042,7.85759 17.55042,17.55042c0,9.69283 -7.85759,17.55042 -17.55042,17.55042c-9.69283,0 -17.55042,-7.85759 -17.55042,-17.55042z" stroke="#691561"/><path d="M593.31748,465.57493c0,-8.72355 7.07183,-15.79538 15.79538,-15.79538c8.72355,0 15.79538,7.07183 15.79538,15.79538c0,8.72355 -7.07183,15.79538 -15.79538,15.79538c-8.72355,0 -15.79538,-7.07183 -15.79538,-15.79538z" stroke="#691561"/><path d="M589.81954,460.83694c0,-7.85119 6.36465,-14.21584 14.21584,-14.21584c7.85119,0 14.21584,6.36465 14.21584,14.21584c0,7.85119 -6.36465,14.21584 -14.21584,14.21584c-7.85119,0 -14.21584,-6.36465 -14.21584,-14.21584z" stroke="#691561"/><path d="M586.19131,456.18188c0,-7.06607 5.72818,-12.79426 12.79426,-12.79426c7.06607,0 12.79426,5.72818 12.79426,12.79426c0,7.06607 -5.72818,12.79426 -12.79426,12.79426c-7.06607,0 -12.79426,-5.72818 -12.79426,-12.79426z" stroke="#691561"/><path d="M582.46169,451.61464c0,-6.35947 5.15537,-11.51483 11.51483,-11.51483c6.35947,0 11.51483,5.15537 11.51483,11.51483c0,6.35947 -5.15537,11.51483 -11.51483,11.51483c-6.35947,0 -11.51483,-5.15537 -11.51483,-11.51483z" stroke="#691561"/><path d="M578.65608,447.13918c0,-5.72352 4.63983,-10.36335 10.36335,-10.36335c5.72352,0 10.36335,4.63983 10.36335,10.36335c0,5.72352 -4.63983,10.36335 -10.36335,10.36335c-5.72352,0 -10.36335,-4.63983 -10.36335,-10.36335z" stroke="#691561"/><path d="M574.79682,442.75864c0,-5.15117 4.17585,-9.32701 9.32701,-9.32701c5.15117,0 9.32701,4.17585 9.32701,9.32701c0,5.15117 -4.17585,9.32701 -9.32701,9.32701c-5.15117,0 -9.32701,-4.17585 -9.32701,-9.32701z" stroke="#691561"/><path d="M570.90342,438.47543c0,-4.63605 3.75826,-8.39431 8.39431,-8.39431c4.63605,0 8.39431,3.75826 8.39431,8.39431c0,4.63605 -3.75826,8.39431 -8.39431,8.39431c-4.63605,0 -8.39431,-3.75826 -8.39431,-8.39431z" stroke="#691561"/><path d="M566.99293,434.29135c0,-4.17245 3.38244,-7.55488 7.55488,-7.55488c4.17245,0 7.55488,3.38244 7.55488,7.55488c0,4.17245 -3.38244,7.55488 -7.55488,7.55488c-4.17245,0 -7.55488,-3.38244 -7.55488,-7.55488z" stroke="#691561"/><path d="M563.08016,430.2076c0,-3.7552 3.04419,-6.79939 6.79939,-6.79939c3.7552,0 6.79939,3.04419 6.79939,6.79939c0,3.7552 -3.04419,6.79939 -6.79939,6.79939c-3.7552,0 -6.79939,-3.04419 -6.79939,-6.79939z" stroke="#691561"/><path d="M559.17792,426.22492c0,-3.37968 2.73977,-6.11945 6.11945,-6.11945c3.37968,0 6.11945,2.73977 6.11945,6.11945c0,3.37968 -2.73977,6.11945 -6.11945,6.11945c-3.37968,0 -6.11945,-2.73977 -6.11945,-6.11945z" stroke="#691561"/><path d="M555.29728,422.34362c0,-3.04171 2.4658,-5.50751 5.50751,-5.50751c3.04171,0 5.50751,2.4658 5.50751,5.50751c0,3.04171 -2.4658,5.50751 -5.50751,5.50751c-3.04171,0 -5.50751,-2.4658 -5.50751,-5.50751z" stroke="#691561"/><path d="M551.44772,418.56364c0,-2.73754 2.21922,-4.95676 4.95676,-4.95676c2.73754,0 4.95676,2.21922 4.95676,4.95676c0,2.73754 -2.21922,4.95676 -4.95676,4.95676c-2.73754,0 -4.95676,-2.21922 -4.95676,-4.95676z" stroke="#691561"/><path d="M547.63733,414.88457c0,-2.46379 1.99729,-4.46108 4.46108,-4.46108c2.46379,0 4.46108,1.99729 4.46108,4.46108c0,2.46379 -1.99729,4.46108 -4.46108,4.46108c-2.46379,0 -4.46108,-1.99729 -4.46108,-4.46108z" stroke="#691561"/><path d="M543.87295,411.30575c0,-2.21741 1.79756,-4.01497 4.01497,-4.01497c2.21741,0 4.01497,1.79756 4.01497,4.01497c0,2.21741 -1.79756,4.01497 -4.01497,4.01497c-2.21741,0 -4.01497,-1.79756 -4.01497,-4.01497z" stroke="#691561"/><path d="M540.16033,407.82628c0,-1.99567 1.61781,-3.61348 3.61348,-3.61348c1.99567,0 3.61348,1.61781 3.61348,3.61348c0,1.99567 -1.61781,3.61348 -3.61348,3.61348c-1.99567,0 -3.61348,-1.61781 -3.61348,-3.61348z" stroke="#691561"/><path d="M536.50427,404.44503c0,-1.7961 1.45603,-3.25213 3.25213,-3.25213c1.7961,0 3.25213,1.45603 3.25213,3.25213c0,1.7961 -1.45603,3.25213 -3.25213,3.25213c-1.7961,0 -3.25213,-1.45603 -3.25213,-3.25213z" stroke="#691561"/><path d="M532.25825,401.16072c0,-1.97571 1.60163,-3.57734 3.57734,-3.57734c1.97571,0 3.57734,1.60163 3.57734,3.57734c0,1.97571 -1.60163,3.57734 -3.57734,3.57734c-1.97571,0 -3.57734,-1.60163 -3.57734,-3.57734z" stroke="#691561"/><path d="M526.89536,397.9719c0,-2.82527 2.29033,-5.1156 5.1156,-5.1156c2.82527,0 5.1156,2.29033 5.1156,5.1156c0,2.82527 -2.29033,5.1156 -5.1156,5.1156c-2.82527,0 -5.1156,-2.29033 -5.1156,-5.1156z" stroke="#19c88f"/><path d="M523.63123,394.87701c0,-2.56842 2.08212,-4.65054 4.65054,-4.65054c2.56842,0 4.65054,2.08212 4.65054,4.65054c0,2.56842 -2.08212,4.65054 -4.65054,4.65054c-2.56842,0 -4.65054,-2.08212 -4.65054,-4.65054z" stroke="#19c88f"/><path d="M519.01987,391.87438c0,-3.10779 2.51936,-5.62716 5.62716,-5.62716c3.10779,0 5.62716,2.51936 5.62716,5.62716c0,3.10779 -2.51936,5.62716 -5.62716,5.62716c-3.10779,0 -5.62716,-2.51936 -5.62716,-5.62716z" stroke="#19c88f"/><path d="M514.91564,388.96226c0,-3.41857 2.7713,-6.18987 6.18987,-6.18987c3.41857,0 6.18987,2.7713 6.18987,6.18987c0,3.41857 -2.7713,6.18987 -6.18987,6.18987c-3.41857,0 -6.18987,-2.7713 -6.18987,-6.18987z" stroke="#19c88f"/><path d="M510.84701,386.13882c0,-3.76043 3.04843,-6.80886 6.80886,-6.80886c3.76043,0 6.80886,3.04843 6.80886,6.80886c0,3.76043 -3.04843,6.80886 -6.80886,6.80886c-3.76043,0 -6.80886,-3.04843 -6.80886,-6.80886z" stroke="#19c88f"/><path d="M506.80679,383.40218c0,-4.13647 3.35327,-7.48975 7.48975,-7.48975c4.13647,0 7.48975,3.35327 7.48975,7.48975c0,4.13647 -3.35327,7.48975 -7.48975,7.48975c-4.13647,0 -7.48975,-3.35327 -7.48975,-7.48975z" stroke="#19c88f"/><path d="M502.78719,380.75046c0,-4.55012 3.6886,-8.23872 8.23872,-8.23872c4.55012,0 8.23872,3.6886 8.23872,8.23872c0,4.55012 -3.6886,8.23872 -8.23872,8.23872c-4.55012,0 -8.23872,-3.6886 -8.23872,-8.23872z" stroke="#19c88f"/><path d="M498.77958,378.18166c0,-5.00513 4.05746,-9.06259 9.06259,-9.06259c5.00513,0 9.06259,4.05746 9.06259,9.06259c0,5.00513 -4.05746,9.06259 -9.06259,9.06259c-5.00513,0 -9.06259,-4.05746 -9.06259,-9.06259z" stroke="#19c88f"/><path d="M494.77431,375.69354c0,-5.50565 4.46321,-9.96885 9.96885,-9.96885c5.50565,0 9.96885,4.46321 9.96885,9.96885c0,5.50565 -4.46321,9.96885 -9.96885,9.96885c-5.50565,0 -9.96885,-4.46321 -9.96885,-9.96885z" stroke="#19c88f"/><path d="M490.76287,373.28506c0,-6.05621 4.90953,-10.96574 10.96574,-10.96574c6.05621,0 10.96574,4.90953 10.96574,10.96574c0,6.05621 -4.90953,10.96574 -10.96574,10.96574c-6.05621,0 -10.96574,-4.90953 -10.96574,-10.96574z" stroke="#19c88f"/><path d="M486.7284,370.95533c0,-6.66183 5.40048,-12.06231 12.06231,-12.06231c6.66183,0 12.06231,5.40048 12.06231,12.06231c0,6.66183 -5.40048,12.06231 -12.06231,12.06231c-6.66183,0 -12.06231,-5.40048 -12.06231,-12.06231z" stroke="#19c88f"/><path d="M482.65297,368.70528c0,-7.32801 5.94053,-13.26854 13.26854,-13.26854c7.32801,0 13.26854,5.94053 13.26854,13.26854c0,7.32801 -5.94053,13.26854 -13.26854,13.26854c-7.32801,0 -13.26854,-5.94053 -13.26854,-13.26854z" stroke="#19c88f"/><path d="M478.58513,366.50879c0,-8.06082 6.53458,-14.5954 14.5954,-14.5954c8.06082,0 14.5954,6.53458 14.5954,14.5954c0,8.06082 -6.53458,14.5954 -14.5954,14.5954c-8.06082,0 -14.5954,-6.53458 -14.5954,-14.5954z" stroke="#19c88f"/><path d="M474.49106,364.35456c0,-8.8669 7.18804,-16.05494 16.05494,-16.05494c8.8669,0 16.05494,7.18804 16.05494,16.05494c0,8.8669 -7.18804,16.05494 -16.05494,16.05494c-8.8669,0 -16.05494,-7.18804 -16.05494,-16.05494z" stroke="#19c88f"/><path d="M469.99196,362.04473c0,-9.75359 7.90684,-17.66043 17.66043,-17.66043c9.75359,0 17.66043,7.90684 17.66043,17.66043c0,9.75359 -7.90684,17.66043 -17.66043,17.66043c-9.75359,0 -17.66043,-7.90684 -17.66043,-17.66043z" stroke="#19c88f"/><path d="M465.00917,359.5115c0,-10.72895 8.69753,-19.42647 19.42647,-19.42647c10.72895,0 19.42647,8.69753 19.42647,19.42647c0,10.72895 -8.69753,19.42647 -19.42647,19.42647c-10.72895,0 -19.42647,-8.69753 -19.42647,-19.42647z" stroke="#19c88f"/><path d="M464.67997,359.11242c0,-10.72895 8.69753,-19.42647 19.42647,-19.42647c10.72895,0 19.42647,8.69753 19.42647,19.42647c0,10.72895 -8.69753,19.42647 -19.42647,19.42647c-10.72895,0 -19.42647,-8.69753 -19.42647,-19.42647z" stroke="#19c88f"/></g></svg>